<svg width="876" height="558" viewBox="0 0 876 558" fill="none" xmlns="http://www.w3.org/2000/svg">
<path style="mix-blend-mode:screen" d="M545.233 0.414238L544.994 0L0 315.219L0.621357 316.287L0.541696 316.43L0.796612 316.573V316.605H0.828476L415.927 557.405H419.097L398.354 545.376L446.262 517.606L494.17 545.392L473.442 557.405H476.613L495.763 546.3L514.898 557.405H518.068L497.341 545.392L545.249 517.622L593.157 545.392L572.429 557.405H575.6L594.734 546.3L613.885 557.405H617.055L596.328 545.392L644.236 517.606L692.144 545.376L671.4 557.405H674.571L875.54 440.813V438.965L842.194 458.307L794.286 430.569L842.194 402.783L875.54 422.093V420.245L843.787 401.859L875.54 383.441V381.593L842.194 400.935L794.286 373.197L842.194 345.427L875.54 364.721V362.873L843.787 344.487L875.54 326.085V324.237L842.194 343.563L794.286 315.841L842.194 288.071L875.54 307.365V305.532L843.787 287.163L875.54 268.761V266.913L842.194 286.239L794.286 258.516L842.194 230.762L875.54 250.056V248.224L843.787 229.854L875.54 211.453V209.604L842.194 228.93L794.286 201.208L842.194 173.454L875.54 192.732V190.9L545.472 0L545.233 0.414238ZM495.747 30.319L543.656 58.0252L495.747 85.7473L447.839 58.0252L495.747 30.319ZM545.233 286.302L497.325 258.564L545.233 230.826L593.141 258.564L545.233 286.302ZM594.718 259.472L642.627 287.21L594.718 314.964L546.81 287.226L594.718 259.488V259.472ZM543.64 287.21L495.731 314.948L447.823 287.194L495.731 259.456L543.64 287.194V287.21ZM495.731 257.624L447.823 229.886L495.731 202.164L543.64 229.902L495.731 257.64V257.624ZM494.138 258.548L446.23 286.286L398.322 258.532L446.23 230.81L494.138 258.548ZM444.653 287.21L396.745 314.948L348.836 287.194L396.745 259.472L444.653 287.226V287.21ZM395.167 315.872L347.259 343.611L299.351 315.841L347.259 288.119L395.167 315.872ZM396.76 316.797L444.669 344.551L396.76 372.289L348.852 344.519L396.76 316.781V316.797ZM398.354 315.872L446.262 288.134L494.17 315.888L446.262 343.626L398.354 315.872ZM495.747 316.812L543.656 344.566L495.747 372.32L447.839 344.566L495.747 316.828V316.812ZM497.341 315.888L545.249 288.15L593.157 315.888L545.249 343.642L497.341 315.888ZM594.734 316.812L642.643 344.551L594.734 372.304L546.826 344.551L594.734 316.797V316.812ZM596.328 315.888L644.236 288.134L692.144 315.872L644.236 343.626L596.328 315.888ZM644.236 286.302L596.328 258.564L644.236 230.826L692.144 258.548L644.236 286.302ZM594.75 257.64L546.842 229.902L594.75 202.164L642.659 229.886L594.75 257.624V257.64ZM545.265 228.978L497.357 201.24L545.265 173.518L593.173 201.24L545.265 228.978ZM495.779 200.316L447.871 172.578L495.779 144.856L543.688 172.578L495.779 200.3V200.316ZM494.186 201.24L446.278 228.962L398.37 201.224L446.278 173.502L494.186 201.24ZM444.701 229.886L396.792 257.608L348.884 229.854L396.792 202.132L444.701 229.87V229.886ZM395.215 258.532L347.307 286.254L299.399 258.501L347.307 230.778L395.215 258.532ZM345.729 287.179L297.821 314.901L249.913 287.131L297.821 259.409L345.729 287.163V287.179ZM296.244 315.825L248.336 343.547L200.428 315.777L248.336 288.055L296.244 315.825ZM297.837 316.749L345.745 344.519L297.837 372.257L249.929 344.487L297.837 316.765V316.749ZM347.323 345.443L395.231 373.213L347.323 400.951L299.414 373.181L347.323 345.443ZM396.808 374.137L444.716 401.907L396.808 429.66L348.9 401.891L396.808 374.153V374.137ZM398.401 373.213L446.31 345.475L494.218 373.229L446.31 400.982L398.401 373.213ZM495.795 374.153L543.703 401.907L495.795 429.66L447.887 401.891L495.795 374.137V374.153ZM497.388 373.229L545.297 345.475L593.205 373.229L545.297 400.982L497.388 373.229ZM594.782 374.153L642.69 401.907L594.782 429.676L546.874 401.922L594.782 374.169V374.153ZM596.375 373.229L644.284 345.475L692.192 373.213L644.284 400.982L596.375 373.229ZM693.769 374.137L741.677 401.875L693.769 429.645L645.861 401.891L693.769 374.121V374.137ZM693.769 372.289L645.861 344.551L693.769 316.797L741.677 344.535L693.769 372.304V372.289ZM693.769 314.948L645.861 287.21L693.769 259.456L741.677 287.179L693.769 314.932V314.948ZM693.769 257.624L645.861 229.902L693.769 202.164L741.677 229.886L693.769 257.64V257.624ZM644.284 228.978L596.375 201.256L644.284 173.518L692.192 201.24L644.284 228.978ZM594.798 200.332L546.89 172.61L594.798 144.888L642.706 172.61L594.798 200.348V200.332ZM545.313 171.686L497.404 143.964L545.313 116.242L593.221 143.964L545.313 171.686ZM495.827 143.04L447.919 115.318L495.827 87.5954L543.735 115.318L495.827 143.04ZM494.234 143.964L446.326 171.686L398.417 143.948L446.326 116.226L494.234 143.948V143.964ZM444.748 172.61L396.84 200.332L348.932 172.594L396.84 144.888L444.748 172.626V172.61ZM395.263 201.256L347.355 228.978L299.446 201.224L347.355 173.518L395.263 201.256ZM345.777 229.902L297.869 257.624L249.961 229.87L297.869 202.164L345.777 229.918V229.902ZM296.276 258.548L248.368 286.27L200.459 258.501L248.368 230.778L296.276 258.532V258.548ZM246.79 287.194L198.882 314.917L150.974 287.147L198.882 259.425L246.79 287.194ZM197.305 315.841L149.397 343.563L101.488 315.777L149.397 288.055L197.305 315.825V315.841ZM198.898 316.765L246.806 344.535L198.898 372.257L150.99 344.471L198.898 316.749V316.765ZM248.384 345.459L296.292 373.229L248.384 400.967L200.475 373.181L248.384 345.459ZM297.869 374.153L345.777 401.922L297.869 429.66L249.961 401.875L297.869 374.137V374.153ZM347.355 402.847L395.263 430.616L347.355 458.37L299.446 430.585L347.355 402.847ZM396.84 431.54L444.748 459.31L396.84 487.064L348.932 459.279L396.84 431.525V431.54ZM398.433 430.616L446.342 402.862L494.25 430.632L446.342 458.386L398.433 430.616ZM495.827 431.556L543.735 459.326L495.827 487.096L447.919 459.326L495.827 431.572V431.556ZM497.42 430.632L545.328 402.878L593.237 430.632L545.328 458.402L497.42 430.632ZM594.814 431.556L642.722 459.31L594.814 487.08L546.906 459.31L594.814 431.54V431.556ZM596.407 430.632L644.315 402.862L692.224 430.616L644.315 458.386L596.407 430.632ZM693.801 431.54L741.709 459.294L693.801 487.08L645.893 459.326L693.801 431.556V431.54ZM695.394 430.616L743.302 402.847L791.211 430.585L743.302 458.37L695.394 430.616ZM743.302 400.998L695.394 373.26L743.302 345.491L791.211 373.229L743.302 400.998ZM743.302 343.642L695.394 315.904L743.302 288.15L791.211 315.872L743.302 343.642ZM743.302 286.302L695.394 258.58L743.302 230.826L791.211 258.548L743.302 286.302ZM743.302 228.978L695.394 201.256L743.302 173.518L791.211 201.224L743.302 228.978ZM693.817 200.332L645.909 172.61L693.817 144.872L741.725 172.578L693.817 200.316V200.332ZM644.331 171.686L596.423 143.964L644.331 116.242L692.24 143.964L644.331 171.702V171.686ZM594.846 143.04L546.938 115.318L594.846 87.5954L642.754 115.318L594.846 143.04ZM545.36 114.393L497.452 86.6714L545.36 58.9652L593.269 86.6714L545.36 114.393ZM446.373 58.9493L494.282 86.6714L446.373 114.393L398.465 86.6714L446.373 58.9652V58.9493ZM396.872 87.5795L444.78 115.302L396.872 143.008L348.964 115.27L396.872 87.5636V87.5795ZM347.386 116.21L395.295 143.948L347.386 171.654L299.478 143.916L347.386 116.21ZM297.901 144.84L345.809 172.578L297.901 200.284L249.993 172.53L297.901 144.824V144.84ZM248.415 173.47L296.324 201.224L248.415 228.946L200.507 201.192L248.415 173.486V173.47ZM198.914 202.1L246.822 229.854L198.914 257.561L151.006 229.791L198.914 202.084V202.1ZM149.428 230.731L197.337 258.501L149.428 286.207L101.52 258.437L149.428 230.731ZM99.927 259.361L147.835 287.131L99.927 314.853L52.0187 287.067L99.927 259.361ZM2.40577 315.665L50.314 287.959L98.2222 315.745L50.314 343.467L2.40577 315.665ZM51.8913 344.375L99.7995 316.669L147.708 344.455L99.7995 372.177L51.8913 344.391V344.375ZM101.377 373.085L149.285 345.363L197.193 373.149L149.285 400.871L101.377 373.085ZM150.862 401.795L198.771 374.073L246.679 401.859L198.771 429.597L150.862 401.811V401.795ZM200.348 430.505L248.256 402.767L296.164 430.553L248.256 458.291L200.348 430.505ZM249.833 459.215L297.742 431.477L345.65 459.263L297.742 487.017L249.833 459.231V459.215ZM299.319 487.925L347.227 460.171L395.135 487.957L347.259 515.695L347.291 515.742L299.335 487.925H299.319ZM396.856 544.341L396.999 544.596L348.804 516.635L396.713 488.881L444.621 516.666L396.856 544.357V544.341ZM398.306 487.957L446.214 460.203L494.122 487.972L446.214 515.742L398.306 487.957ZM495.7 544.436L447.791 516.651L495.7 488.881L543.608 516.651L495.7 544.42V544.436ZM497.293 487.972L545.201 460.203L593.109 487.972L545.201 515.742L497.293 487.972ZM594.687 544.436L546.778 516.666L594.687 488.897L642.595 516.666L594.687 544.452V544.436ZM644.172 515.726L596.264 487.957L644.172 460.187L692.08 487.941L644.172 515.726ZM693.371 544.58L693.514 544.325L645.749 516.635L693.658 488.849L741.566 516.603L693.371 544.564V544.58ZM743.111 515.726L743.143 515.679L695.267 487.941L743.175 460.155L791.083 487.909L743.127 515.726H743.111ZM840.553 459.199L792.645 486.985L744.736 459.231L792.645 431.445L840.553 459.183V459.199ZM840.553 401.827L792.645 429.613L744.736 401.875L792.645 374.105L840.553 401.843V401.827ZM840.553 344.471L792.645 372.241L744.736 344.503L792.645 316.733L840.553 344.455V344.471ZM840.553 287.131L792.645 314.901L744.736 287.179L792.645 259.425L840.553 287.147V287.131ZM840.553 229.807L792.645 257.561L744.736 229.838L792.645 202.084L840.553 229.791V229.807ZM840.553 172.498L792.645 200.252L744.736 172.546L792.645 144.808L840.553 172.514V172.498ZM791.067 143.868L743.159 171.606L695.251 143.9L743.159 116.162L791.067 143.868ZM741.582 115.238L693.674 142.976L645.765 115.27L693.674 87.5476L741.582 115.254V115.238ZM692.096 86.6076L644.188 114.33L596.28 86.6076L644.188 58.8855L692.096 86.5917V86.6076ZM642.611 57.9774L594.703 85.6995L546.794 57.9774L594.703 30.2712L642.611 57.9774ZM545.217 57.0693L497.309 29.3472L545.217 1.64102L593.125 29.3472L545.217 57.0693Z" fill="url(#paint0_linear_140_539)"/>
<defs>
<linearGradient id="paint0_linear_140_539" x1="988.245" y1="667.417" x2="185.26" y2="63.5855" gradientUnits="userSpaceOnUse">
<stop stop-color="#5F4906"/>
<stop offset="0.97" stop-color="#020100"/>
<stop offset="1"/>
</linearGradient>
</defs>
</svg>
