<svg width="622" height="476" viewBox="0 0 622 476" fill="none" xmlns="http://www.w3.org/2000/svg">
<g filter="url(#filter0_d_600_101)">
<mask id="mask0_600_101" style="mask-type:luminance" maskUnits="userSpaceOnUse" x="184" y="147" width="250" height="107">
<path d="M301.468 194.249C254.48 208.613 215.638 231.079 195.099 253.461C191.61 242.356 188.124 231.255 184.634 220.153C205.169 197.771 244.015 175.309 291.003 160.941C345.419 144.305 395.838 143.091 422.624 155.421C426.114 166.526 429.603 177.628 433.093 188.729C406.303 176.399 355.888 177.613 301.468 194.249Z" fill="white"/>
</mask>
<g mask="url(#mask0_600_101)">
<path d="M429.475 159.214L439.94 192.522C436.663 190.331 432.829 188.436 428.506 186.834L418.037 153.526C422.361 155.128 426.194 157.027 429.475 159.214Z" fill="#FECF10"/>
<path d="M418.038 153.526L428.506 186.834C424.812 185.466 420.759 184.318 416.384 183.385L405.916 150.077C410.29 151.01 414.343 152.158 418.038 153.526Z" fill="#FED210"/>
<path d="M405.915 150.081L416.384 183.389C412.251 182.511 407.832 181.827 403.161 181.344L392.696 148.037C397.363 148.516 401.782 149.2 405.915 150.081Z" fill="#FED411"/>
<path d="M392.692 148.035L403.157 181.343C398.417 180.853 393.413 180.571 388.182 180.498L377.718 147.19C382.948 147.264 387.952 147.545 392.692 148.035Z" fill="#FED711"/>
<path d="M377.721 147.191L388.186 180.499C382.524 180.422 376.598 180.587 370.449 181.008L359.981 147.7C366.129 147.279 372.055 147.115 377.721 147.191Z" fill="#FED911"/>
<path d="M359.981 147.7L370.449 181.008C363.247 181.498 355.745 182.332 348.012 183.517L337.544 150.209C345.28 149.024 352.782 148.19 359.981 147.7Z" fill="#FEDC11"/>
<path d="M337.544 150.206L348.013 183.514C333.177 185.785 317.496 189.348 301.468 194.249C288.303 198.273 275.783 202.933 264.122 208.05L253.653 174.742C265.314 169.629 277.838 164.969 291.003 160.945C307.031 156.04 322.712 152.477 337.544 150.206Z" fill="#FEDE12"/>
<path d="M253.653 174.742L264.121 208.05C257.025 211.162 250.243 214.447 243.839 217.856L233.37 184.548C239.775 181.139 246.553 177.855 253.653 174.742Z" fill="#FEDC11"/>
<path d="M233.367 184.548L243.836 217.856C238.21 220.852 232.87 223.946 227.848 227.11L217.383 193.802C222.401 190.635 227.741 187.544 233.367 184.548Z" fill="#FED911"/>
<path d="M217.382 193.799L227.847 227.107C223.161 230.059 218.754 233.073 214.65 236.131L204.185 202.823C208.285 199.769 212.696 196.755 217.382 193.799Z" fill="#FED711"/>
<path d="M204.185 202.823L214.65 236.131C210.593 239.152 206.837 242.21 203.406 245.286L192.941 211.978C196.372 208.906 200.128 205.844 204.185 202.823Z" fill="#FED411"/>
<path d="M192.941 211.978L203.406 245.286C199.763 248.552 196.485 251.841 193.61 255.122L183.142 221.814C186.02 218.533 189.298 215.248 192.941 211.978Z" fill="#FED210"/>
</g>
<mask id="mask1_600_101" style="mask-type:luminance" maskUnits="userSpaceOnUse" x="422" y="155" width="31" height="53">
<path d="M433.093 188.733C429.603 177.631 426.114 166.53 422.624 155.425C432.409 159.928 439.044 166.241 441.564 174.27L452.033 207.581C449.512 199.549 442.877 193.236 433.093 188.733Z" fill="white"/>
</mask>
<g mask="url(#mask1_600_101)">
<path d="M441.564 174.266L452.029 207.574C450.149 201.593 445.987 196.564 439.937 192.526L429.472 159.218C435.522 163.256 439.684 168.285 441.564 174.266Z" fill="#FECD10"/>
<path d="M429.475 159.214L439.94 192.522C436.663 190.331 432.829 188.436 428.506 186.834L418.037 153.526C422.361 155.128 426.194 157.027 429.475 159.214Z" fill="#FECF10"/>
</g>
<mask id="mask2_600_101" style="mask-type:luminance" maskUnits="userSpaceOnUse" x="168" y="220" width="28" height="73">
<path d="M180.102 291.89C180.198 292.256 180.304 292.614 180.413 292.973L169.945 259.665C169.835 259.306 169.729 258.948 169.634 258.582C166.58 246.98 172.311 233.581 184.631 220.154C188.12 231.259 191.61 242.36 195.096 253.461C182.776 266.893 177.045 280.291 180.102 291.89Z" fill="white"/>
</mask>
<g mask="url(#mask2_600_101)">
<path d="M192.941 211.978L203.406 245.286C199.763 248.552 196.485 251.841 193.61 255.122L183.142 221.814C186.02 218.533 189.298 215.248 192.941 211.978Z" fill="#FED210"/>
<path d="M183.142 221.814L193.61 255.122C190.242 258.962 187.418 262.796 185.194 266.578L174.725 233.27C176.953 229.488 179.773 225.655 183.142 221.814Z" fill="#FECF10"/>
<path d="M174.725 233.27L185.194 266.578C179.967 275.47 178.047 284.084 180.102 291.886C180.198 292.252 180.304 292.614 180.413 292.969L169.948 259.661C169.835 259.303 169.729 258.941 169.634 258.578C167.582 250.78 169.502 242.162 174.725 233.27Z" fill="#FECD10"/>
</g>
<path d="M298.782 170.356C228.074 189.399 167.497 227.904 168.532 257.975C169.699 291.908 246.385 297.973 332.182 269.834C410.689 244.083 455.379 202.64 439.49 177.924C425.181 155.663 364.549 152.642 298.782 170.356Z" fill="#F1B700"/>
<path d="M310.517 218.175C323.081 214.334 335.825 211.316 337.496 217.663C339.131 223.863 327.741 228.384 315.736 232.056L287.586 240.663L283.811 226.339L310.517 218.175Z" fill="#CF8E00"/>
<path d="M365.523 209.417C368.939 220.277 350.994 228.862 343.55 232.319L350.767 255.366C358.178 251.957 375.644 243.574 372.231 232.732L365.523 209.417Z" fill="#CF8E00"/>
<path d="M276.445 253.958L280.453 269.017L266.74 273.209L262.731 258.15L276.445 253.958Z" fill="#CF8E00"/>
<path d="M318.772 241.014L322.818 256.483L306.076 261.6L302.031 246.135L318.772 241.014Z" fill="#CF8E00"/>
<path d="M304.888 256.981L308.249 269.059L282.663 276.883L279.302 264.801L304.888 256.981Z" fill="#E59C00"/>
<path d="M347.212 244.039L351.02 255.268L324.567 263.447L321.63 251.859L347.212 244.039Z" fill="#E59C00"/>
<path d="M303.962 198.412L278.507 206.192L281.755 218.526L307.21 210.746C317.437 207.618 328.143 203.467 326.739 198.148C325.345 192.837 314.716 195.123 303.962 198.412Z" fill="#CF8E00"/>
<path d="M287.136 146.266C381.986 117.267 467.246 125.402 477.531 164.449C487.817 203.511 419.23 258.681 324.384 287.676C229.537 316.675 144.307 308.529 134.022 269.468C123.736 230.425 192.286 175.262 287.136 146.266ZM320.517 273.005C395.699 250.019 450.032 206.301 441.879 175.353C433.729 144.415 366.185 137.959 291.003 160.945C215.821 183.93 161.488 227.648 169.637 258.586C177.787 289.534 245.335 295.99 320.517 273.005Z" fill="#FED411"/>
<path d="M338.96 204.063C352.618 201.554 363.705 202.483 365.625 209.78C367.611 217.323 358.54 225.388 344.059 232.056L347.212 244.039L321.626 251.86L318.769 241.014L302.031 246.131L304.888 256.977L279.301 264.801L276.445 253.955L262.732 258.147L248.894 205.603L262.607 201.411L259.926 191.232L285.512 183.408L288.193 193.587L304.935 188.47L302.254 178.287L327.84 170.463L330.909 182.12C343.049 180.456 351.901 181.817 353.503 187.896C354.842 192.991 348.847 198.964 338.96 204.063ZM315.737 232.056C327.741 228.388 339.128 223.867 337.497 217.663C335.825 211.313 323.081 214.331 310.517 218.175L283.811 226.339L287.586 240.663L315.737 232.056ZM278.508 206.192L281.756 218.526L307.21 210.746C317.437 207.619 328.144 203.467 326.739 198.149C325.342 192.841 314.712 195.124 303.962 198.412L278.508 206.192Z" fill="#FFD02B"/>
<mask id="mask3_600_101" style="mask-type:luminance" maskUnits="userSpaceOnUse" x="134" y="163" width="356" height="176">
<path d="M477.133 163.084L487.597 196.392C487.74 196.846 487.872 197.299 487.992 197.76C498.282 236.822 429.695 291.992 334.845 320.991C241.114 349.646 156.78 342.031 144.878 304.151L134.413 270.843C146.315 308.719 230.653 316.338 324.38 287.683C419.226 258.688 487.813 203.514 477.528 164.456C477.407 163.992 477.275 163.534 477.133 163.084Z" fill="white"/>
</mask>
<g mask="url(#mask3_600_101)">
<path d="M477.132 163.084L487.597 196.392C487.74 196.846 487.871 197.299 487.992 197.76C490.589 207.614 488.164 218.489 481.565 229.715L471.097 196.407C477.696 185.181 480.117 174.307 477.524 164.452C477.407 163.992 477.275 163.534 477.132 163.084Z" fill="#FED32C"/>
<path d="M471.101 196.407L481.57 229.715C478.761 234.492 475.202 239.328 470.948 244.178L460.479 210.87C464.733 206.02 468.296 201.181 471.101 196.407Z" fill="#FED42C"/>
<path d="M460.478 210.866L470.947 244.174C467.315 248.315 463.178 252.463 458.584 256.585L448.115 223.277C452.713 219.155 456.85 215.007 460.478 210.866Z" fill="#FED72C"/>
<path d="M448.116 223.277L458.584 256.585C454.253 260.47 449.513 264.332 444.392 268.144L433.923 234.836C439.041 231.021 443.785 227.158 448.116 223.277Z" fill="#FED92D"/>
<path d="M433.923 234.836L444.392 268.143C439.216 271.999 433.653 275.803 427.738 279.53L417.27 246.222C423.184 242.495 428.748 238.687 433.923 234.836Z" fill="#FEDB2D"/>
<path d="M417.269 246.219L427.738 279.527C421.402 283.521 414.661 287.424 407.561 291.202L397.093 257.895C404.196 254.116 410.934 250.213 417.269 246.219Z" fill="#FEDD2D"/>
<path d="M397.096 257.894L407.564 291.202C399.477 295.507 390.925 299.647 381.967 303.576L371.499 270.264C380.456 266.34 389.008 262.199 397.096 257.894Z" fill="#FEE02D"/>
<path d="M371.5 270.269L381.968 303.58C367.257 310.036 351.455 315.91 334.849 320.991C314.632 327.173 294.847 331.668 276.134 334.532L265.669 301.224C284.382 298.357 304.163 293.865 324.384 287.68C340.986 282.603 356.788 276.725 371.5 270.269Z" fill="#FFE543"/>
<path d="M265.668 301.22L276.133 334.528C266.378 336.02 256.919 337.074 247.833 337.692L237.368 304.384C246.45 303.766 255.913 302.716 265.668 301.22Z" fill="#FEE02D"/>
<path d="M237.368 304.385L247.833 337.692C240.079 338.219 232.602 338.431 225.459 338.332L214.994 305.025C222.134 305.123 229.614 304.911 237.368 304.385Z" fill="#FEDD2D"/>
<path d="M214.99 305.025L225.455 338.333C218.86 338.241 212.547 337.886 206.566 337.268L196.098 303.96C202.085 304.575 208.395 304.933 214.99 305.025Z" fill="#FEDB2D"/>
<path d="M196.097 303.957L206.566 337.265C200.673 336.658 195.095 335.798 189.879 334.686L179.414 301.378C184.63 302.49 190.208 303.35 196.097 303.957Z" fill="#FED92D"/>
<path d="M179.414 301.382L189.879 334.689C184.363 333.515 179.246 332.063 174.582 330.337L164.113 297.029C168.781 298.755 173.898 300.207 179.414 301.382Z" fill="#FED72C"/>
<path d="M164.118 297.029L174.586 330.336C169.129 328.317 164.29 325.918 160.149 323.156L149.68 289.848C153.821 292.61 158.66 295.006 164.118 297.029Z" fill="#FED42C"/>
<path d="M149.684 289.848L160.153 323.156C152.515 318.054 147.259 311.704 144.881 304.147L134.417 270.839C136.787 278.396 142.043 284.749 149.684 289.848Z" fill="#FED32C"/>
</g>
</g>
<defs>
<filter id="filter0_d_600_101" x="0.199997" y="0.0918427" width="621.614" height="475.064" filterUnits="userSpaceOnUse" color-interpolation-filters="sRGB">
<feFlood flood-opacity="0" result="BackgroundImageFix"/>
<feColorMatrix in="SourceAlpha" type="matrix" values="0 0 0 0 0 0 0 0 0 0 0 0 0 0 0 0 0 0 127 0" result="hardAlpha"/>
<feOffset dy="4"/>
<feGaussianBlur stdDeviation="66.4"/>
<feComposite in2="hardAlpha" operator="out"/>
<feColorMatrix type="matrix" values="0 0 0 0 1 0 0 0 0 0.733333 0 0 0 0 0 0 0 0 1 0"/>
<feBlend mode="normal" in2="BackgroundImageFix" result="effect1_dropShadow_600_101"/>
<feBlend mode="normal" in="SourceGraphic" in2="effect1_dropShadow_600_101" result="shape"/>
</filter>
</defs>
</svg>
