<svg width="317" height="329" viewBox="0 0 317 329" fill="none" xmlns="http://www.w3.org/2000/svg">
<g filter="url(#filter0_f_94_3975)">
<mask id="mask0_94_3975" style="mask-type:luminance" maskUnits="userSpaceOnUse" x="135" y="157" width="135" height="128">
<path d="M250.907 157.533C257.228 162.919 263.55 168.302 269.874 173.688C252.749 225.643 205.693 272.472 154.742 284.589L135.774 268.434C186.723 256.317 233.778 209.485 250.907 157.533Z" fill="white"/>
</mask>
<g mask="url(#mask0_94_3975)">
<path d="M154.742 284.589L135.774 268.434C135.855 268.415 135.936 268.395 136.016 268.376L154.984 284.531C154.903 284.55 154.822 284.57 154.742 284.589Z" fill="#FECF10"/>
<path d="M154.984 284.531L136.017 268.376C137.462 268.031 138.904 267.654 140.342 267.254L159.309 283.409C157.871 283.809 156.429 284.183 154.984 284.531Z" fill="#FED110"/>
<path d="M159.309 283.406L140.341 267.251C141.78 266.851 143.212 266.419 144.641 265.964L163.608 282.119C162.179 282.577 160.747 283.006 159.309 283.406Z" fill="#FED211"/>
<path d="M163.608 282.122L144.641 265.967C146.163 265.484 147.679 264.968 149.188 264.423L168.155 280.578C166.646 281.123 165.13 281.639 163.608 282.122Z" fill="#FED411"/>
<path d="M168.156 280.578L149.188 264.423C150.698 263.878 152.201 263.307 153.694 262.707L172.658 278.865C171.168 279.462 169.665 280.036 168.156 280.578Z" fill="#FED611"/>
<path d="M172.661 278.861L153.697 262.703C155.139 262.122 156.581 261.516 158.009 260.884L176.977 277.042C175.545 277.678 174.106 278.284 172.661 278.861Z" fill="#FED811"/>
<path d="M176.977 277.046L158.009 260.888C159.438 260.259 160.86 259.601 162.276 258.92L181.24 275.075C179.828 275.759 178.405 276.414 176.977 277.046Z" fill="#FEDA11"/>
<path d="M181.242 275.075L162.278 258.92C163.649 258.259 165.013 257.575 166.371 256.869L185.338 273.027C183.981 273.734 182.613 274.417 181.242 275.075Z" fill="#FEDC11"/>
<path d="M185.338 273.027L166.371 256.869C167.729 256.163 169.077 255.434 170.422 254.686L189.389 270.841C188.044 271.592 186.696 272.321 185.338 273.027Z" fill="#FEDD12"/>
<path d="M189.391 270.841L170.423 254.686C171.749 253.944 173.068 253.183 174.377 252.399L193.345 268.557C192.032 269.338 190.713 270.102 189.391 270.841Z" fill="#FEDF12"/>
<path d="M193.34 268.554L174.373 252.396C175.682 251.612 176.985 250.809 178.276 249.983L197.243 266.138C195.953 266.967 194.65 267.77 193.34 268.554Z" fill="#FEE112"/>
<path d="M197.247 266.142L178.28 249.987C179.589 249.151 180.889 248.297 182.176 247.42L201.143 263.578C199.853 264.452 198.553 265.31 197.247 266.142Z" fill="#FEE312"/>
<path d="M201.143 263.577L182.176 247.419C183.469 246.542 184.749 245.645 186.023 244.726L204.991 260.884C203.717 261.803 202.436 262.7 201.143 263.577Z" fill="#FEE83F"/>
<path d="M204.99 260.884L186.023 244.726C187.381 243.749 188.726 242.746 190.061 241.724L209.025 257.882C207.696 258.907 206.348 259.907 204.99 260.884Z" fill="#FEEB52"/>
<path d="M209.028 257.885L190.064 241.726C191.419 240.688 192.763 239.627 194.092 238.546L213.056 254.701C211.731 255.785 210.386 256.846 209.028 257.885Z" fill="#FEEC61"/>
<path d="M213.06 254.702L194.096 238.547C195.66 237.273 197.205 235.97 198.733 234.641L217.698 250.796C216.169 252.128 214.624 253.428 213.06 254.702Z" fill="#FEEE6E"/>
<path d="M217.694 250.796L198.73 234.641C200.462 233.128 202.168 231.583 203.848 230.003L222.816 246.161C221.135 247.738 219.429 249.286 217.694 250.796Z" fill="#FEF079"/>
<path d="M222.815 246.161L203.848 230.003C206.312 227.684 208.715 225.295 211.056 222.834L230.02 238.989C227.682 241.449 225.276 243.839 222.815 246.161Z" fill="#FFF082"/>
<path d="M230.02 238.989L211.056 222.834C215.678 217.976 220.051 212.858 224.125 207.524L243.092 223.682C239.015 229.013 234.645 234.135 230.02 238.989Z" fill="#FFF18B"/>
<path d="M243.093 223.682L224.125 207.524C226.183 204.834 228.163 202.089 230.066 199.296L249.034 215.454C247.131 218.247 245.15 220.992 243.093 223.682Z" fill="#FFF082"/>
<path d="M249.033 215.454L230.065 199.296C231.417 197.313 232.723 195.307 233.994 193.275L252.961 209.433C251.69 211.462 250.384 213.471 249.033 215.454Z" fill="#FEF079"/>
<path d="M252.959 209.433L233.992 193.275C234.985 191.685 235.949 190.082 236.888 188.466L255.855 204.621C254.92 206.24 253.952 207.843 252.959 209.433Z" fill="#FEEE6E"/>
<path d="M255.858 204.624L236.891 188.469C237.79 186.918 238.671 185.354 239.519 183.78L258.486 199.938C257.635 201.508 256.758 203.073 255.858 204.624Z" fill="#FEEC61"/>
<path d="M258.486 199.938L239.519 183.78C240.296 182.341 241.054 180.893 241.786 179.439L260.754 195.597C260.021 197.048 259.267 198.496 258.486 199.938Z" fill="#FEEB52"/>
<path d="M260.757 195.594L241.79 179.436C242.512 178.007 243.209 176.569 243.89 175.124L262.854 191.282C262.176 192.727 261.476 194.165 260.757 195.594Z" fill="#FEE83F"/>
<path d="M262.853 191.282L243.889 175.124C244.541 173.734 245.169 172.334 245.786 170.931L264.75 187.086C264.137 188.492 263.508 189.889 262.853 191.282Z" fill="#FEE312"/>
<path d="M264.749 187.089L245.785 170.934C246.395 169.528 246.985 168.118 247.553 166.706L266.52 182.861C265.952 184.273 265.359 185.683 264.749 187.089Z" fill="#FEE112"/>
<path d="M266.521 182.857L247.554 166.703C248.125 165.287 248.673 163.864 249.195 162.439L268.163 178.594C267.637 180.019 267.089 181.442 266.521 182.857Z" fill="#FEDF12"/>
<path d="M268.159 178.594L249.191 162.439C249.72 161.01 250.22 159.575 250.704 158.136L269.671 174.291C269.191 175.73 268.684 177.162 268.159 178.594Z" fill="#FEDD12"/>
<path d="M269.67 174.291L250.703 158.136C251.193 156.662 251.664 155.185 252.106 153.705L271.073 169.86C270.632 171.34 270.161 172.817 269.67 174.291Z" fill="#FEDC11"/>
</g>
<mask id="mask1_94_3975" style="mask-type:luminance" maskUnits="userSpaceOnUse" x="250" y="89" width="27" height="85">
<path d="M256.892 130.929C258.73 115.483 257.463 101.489 253.602 89.4044C259.923 94.7905 266.245 100.177 272.569 105.559C276.43 117.644 277.697 131.641 275.862 147.084C274.804 156.001 272.763 164.916 269.873 173.685C263.548 168.299 257.227 162.916 250.906 157.53C253.796 148.761 255.834 139.846 256.892 130.929Z" fill="white"/>
</mask>
<g mask="url(#mask1_94_3975)">
<path d="M269.67 174.291L250.703 158.136C251.193 156.662 251.664 155.185 252.106 153.705L271.073 169.86C270.631 171.34 270.16 172.817 269.67 174.291Z" fill="#FEDC11"/>
<path d="M271.076 169.86L252.109 153.705C252.554 152.222 252.973 150.738 253.37 149.248L272.334 165.406C271.937 166.893 271.518 168.38 271.076 169.86Z" fill="#FEDA11"/>
<path d="M272.331 165.406L253.367 149.248C253.774 147.707 254.154 146.162 254.509 144.617L273.476 160.772C273.121 162.323 272.741 163.865 272.331 165.406Z" fill="#FED811"/>
<path d="M273.48 160.775L254.512 144.62C254.861 143.081 255.19 141.537 255.486 139.992L274.454 156.15C274.154 157.692 273.828 159.233 273.48 160.775Z" fill="#FED611"/>
<path d="M274.45 156.146L255.482 139.988C255.75 138.582 255.998 137.179 256.221 135.77L275.188 151.928C274.966 153.337 274.721 154.743 274.45 156.146Z" fill="#FED411"/>
<path d="M275.188 151.931L256.221 135.773C256.443 134.367 256.643 132.961 256.817 131.552L275.785 147.706C275.611 149.116 275.411 150.525 275.188 151.931Z" fill="#FED211"/>
<path d="M275.785 147.71L256.818 131.555C256.847 131.348 256.873 131.139 256.892 130.932C257.082 129.368 257.237 127.814 257.36 126.278L276.324 142.433C276.204 143.972 276.05 145.523 275.863 147.087C275.834 147.294 275.808 147.5 275.785 147.71Z" fill="#FED110"/>
<path d="M276.323 142.43L257.359 126.275C257.505 124.466 257.605 122.679 257.663 120.911L276.63 137.066C276.572 138.837 276.465 140.624 276.323 142.43Z" fill="#FECF10"/>
<path d="M276.627 137.07L257.66 120.915C257.718 119.115 257.734 117.338 257.708 115.587L276.676 131.745C276.705 133.493 276.689 135.27 276.627 137.07Z" fill="#FECD10"/>
<path d="M276.675 131.742L257.708 115.584C257.679 113.781 257.605 112.004 257.485 110.252L276.453 126.411C276.572 128.162 276.646 129.939 276.675 131.742Z" fill="#FECB10"/>
<path d="M276.452 126.41L257.484 110.252C257.362 108.456 257.194 106.692 256.978 104.95L275.945 121.108C276.158 122.847 276.329 124.614 276.452 126.41Z" fill="#FEC910"/>
<path d="M275.942 121.109L256.975 104.95C256.74 103.067 256.453 101.212 256.107 99.3934L275.075 115.548C275.42 117.367 275.707 119.222 275.942 121.109Z" fill="#FEC710"/>
<path d="M275.079 115.552L256.112 99.3966C255.751 97.4518 255.322 95.549 254.838 93.6848L273.805 109.84C274.289 111.701 274.718 113.607 275.079 115.552Z" fill="#FEC60F"/>
<path d="M273.805 109.84L254.838 93.6846C254.303 91.6334 253.7 89.6306 253.029 87.6793L271.993 103.837C272.667 105.785 273.27 107.785 273.805 109.84Z" fill="#FEC40F"/>
</g>
<mask id="mask2_94_3975" style="mask-type:luminance" maskUnits="userSpaceOnUse" x="65" y="255" width="90" height="33">
<path d="M65.0547 255.218C82.1256 269.763 106.927 275.291 135.773 268.431L154.741 284.586C125.895 291.446 101.093 285.918 84.022 271.373C78.3296 266.529 70.7439 260.065 65.0547 255.218Z" fill="white"/>
</mask>
<g mask="url(#mask2_94_3975)">
<path d="M84.0254 271.376L65.0581 255.221C70.0604 259.482 75.727 262.968 81.9645 265.596L100.929 281.755C94.6943 279.126 89.0276 275.64 84.0254 271.376Z" fill="#FEBE0F"/>
<path d="M100.929 281.755L81.9648 265.597C84.6224 266.719 87.3864 267.68 90.2439 268.483L109.211 284.638C106.35 283.838 103.586 282.874 100.929 281.755Z" fill="#FEC00F"/>
<path d="M109.211 284.641L90.2437 268.486C92.5013 269.118 94.8202 269.651 97.1939 270.08L116.161 286.235C113.787 285.806 111.465 285.277 109.211 284.641Z" fill="#FEC20F"/>
<path d="M116.161 286.231L97.1934 270.076C99.2446 270.444 101.341 270.737 103.473 270.947L122.44 287.105C120.308 286.892 118.212 286.602 116.161 286.231Z" fill="#FEC40F"/>
<path d="M122.441 287.102L103.474 270.944C105.38 271.134 107.315 271.257 109.282 271.315L128.25 287.47C126.285 287.415 124.347 287.292 122.441 287.102Z" fill="#FEC60F"/>
<path d="M128.249 287.473L109.281 271.318C111.091 271.373 112.922 271.37 114.78 271.315L133.747 287.47C131.89 287.528 130.058 287.528 128.249 287.473Z" fill="#FEC710"/>
<path d="M133.751 287.469L114.784 271.314C116.57 271.256 118.377 271.15 120.208 270.989L139.176 287.144C137.344 287.305 135.535 287.415 133.751 287.469Z" fill="#FEC910"/>
<path d="M139.173 287.144L120.206 270.989C121.954 270.834 123.718 270.634 125.505 270.382L144.469 286.537C142.688 286.789 140.921 286.992 139.173 287.144Z" fill="#FECB10"/>
<path d="M144.472 286.537L125.508 270.382C127.246 270.137 129.001 269.844 130.768 269.508L149.735 285.667C147.965 286.002 146.207 286.292 144.472 286.537Z" fill="#FECD10"/>
<path d="M149.735 285.663L130.768 269.505C132.423 269.189 134.093 268.831 135.774 268.431L154.741 284.586C153.057 284.989 151.39 285.347 149.735 285.663Z" fill="#FECF10"/>
</g>
<mask id="mask3_94_3975" style="mask-type:luminance" maskUnits="userSpaceOnUse" x="233" y="57" width="40" height="49">
<path d="M253.602 89.4048C249.497 76.5654 242.463 65.8836 233.103 57.9077L252.07 74.0659C261.427 82.0385 268.464 92.7203 272.566 105.56C271.902 104.995 271.018 104.241 270.351 103.673C269.644 103.073 268.703 102.273 267.999 101.673C267.267 101.051 266.293 100.219 265.561 99.5964C264.819 98.9643 263.823 98.1161 263.078 97.4839C262.336 96.8486 261.34 96.0036 260.594 95.3682C259.862 94.7457 258.888 93.9137 258.156 93.2912C257.45 92.6913 256.511 91.8882 255.808 91.2883C255.473 91.0013 255.021 90.6175 254.679 90.3305C254.363 90.0531 253.838 89.7628 253.602 89.4048Z" fill="white"/>
</mask>
<g mask="url(#mask3_94_3975)">
<path d="M273.805 109.839L254.838 93.6845C254.303 91.6333 253.7 89.6304 253.029 87.6792L271.993 103.837C272.667 105.785 273.27 107.785 273.805 109.839Z" fill="#FEC40F"/>
<path d="M271.992 103.834L253.028 87.6757C252.241 85.402 251.36 83.1992 250.393 81.0706L269.36 97.2255C270.327 99.3573 271.208 101.56 271.992 103.834Z" fill="#FEC20F"/>
<path d="M269.356 97.2288L250.389 81.0738C249.128 78.3034 247.712 75.6555 246.151 73.1399L265.119 89.2948C266.68 91.8105 268.095 94.4584 269.356 97.2288Z" fill="#FEC00F"/>
<path d="M265.122 89.2952L246.155 73.1402C242.549 67.3285 238.166 62.2198 233.1 57.9077L252.067 74.0659C257.13 78.378 261.513 83.4834 265.122 89.2952Z" fill="#FEBE0F"/>
</g>
<path d="M184.99 57.4718C244.546 44.6872 279.801 86.5243 267.61 146.464C256.199 202.57 206.038 258.675 152.464 275.671C95.9492 293.6 51.7739 263.222 56.9826 203.244C62.5879 138.708 121.715 71.053 184.99 57.4718Z" fill="#F3A500"/>
<path d="M165.974 121.582L156.108 114.526L169.392 111.368L179.258 118.425L165.974 121.582Z" fill="#CF8E00"/>
<path d="M179.259 118.425L169.203 111.178L171.615 90.8816L181.671 98.1254L179.259 118.425Z" fill="#CF8E00"/>
<path d="M195.457 161.239C205.613 161.82 212.611 167.903 210.879 182.471C209.089 197.523 199.694 209.266 187.3 216.232L184.452 240.179L164.211 244.991L166.788 223.314L153.5 226.475L150.923 248.152L130.656 252.97L133.233 231.294L122.396 233.87L134.871 128.978L145.708 126.401L148.121 106.105L168.388 101.286L165.972 121.583L179.256 118.425L181.672 98.129L201.91 93.317L199.143 116.587C207.944 118.144 213.25 124.185 211.808 136.322C210.602 146.478 204.171 155.44 195.457 161.239ZM168.436 205.17C177.944 202.909 187.419 198.79 188.893 186.412C190.396 173.763 180.637 174.508 170.713 176.865L149.536 181.903L146.14 210.469L168.436 205.17ZM154.319 141.685L151.394 166.28L171.555 161.488C179.656 159.562 188.522 155.876 189.787 145.255C191.048 134.661 182.998 134.867 174.48 136.892L154.319 141.685Z" fill="#FFD12B"/>
<path d="M181.671 98.1256L171.615 90.8818L191.856 86.0667L201.913 93.3136L181.671 98.1256Z" fill="#CF8E00"/>
<path d="M134.87 128.977L124.804 121.721L135.638 119.144L145.707 126.4L134.87 128.977Z" fill="#CF8E00"/>
<path d="M122.399 233.87L112.385 226.665L124.857 121.773L134.871 128.978L122.399 233.87Z" fill="#CF8E00"/>
<path d="M145.708 126.401L135.522 119.025L137.935 98.7289L148.12 106.105L145.708 126.401Z" fill="#CF8E00"/>
<path d="M148.12 106.105L137.935 98.7285L158.276 93.8359L168.387 101.286L148.12 106.105Z" fill="#CF8E00"/>
<mask id="mask4_94_3975" style="mask-type:luminance" maskUnits="userSpaceOnUse" x="165" y="11" width="110" height="38">
<path d="M255.082 32.0641L274.049 48.2223C252.512 29.8742 221.221 22.9078 184.831 31.5578L165.864 15.4028C202.253 6.74968 233.544 13.7161 255.082 32.0641Z" fill="white"/>
</mask>
<g mask="url(#mask4_94_3975)">
<path d="M184.828 31.5575L165.86 15.4026C167.986 14.8962 170.089 14.4447 172.178 14.0448L191.146 30.1997C189.056 30.6029 186.953 31.0544 184.828 31.5575Z" fill="#FECF10"/>
<path d="M191.146 30.2027L172.179 14.0477C174.414 13.6188 176.629 13.2543 178.823 12.9447L197.79 29.0996C195.597 29.406 193.381 29.7769 191.146 30.2027Z" fill="#FECD10"/>
<path d="M197.787 29.0995L178.819 12.9445C181.071 12.6252 183.302 12.3737 185.505 12.1802L204.472 28.3351C202.27 28.5286 200.041 28.7834 197.787 29.0995Z" fill="#FECB10"/>
<path d="M204.475 28.3321L185.508 12.1772C187.817 11.974 190.097 11.8353 192.352 11.7676L211.316 27.9225C209.065 27.9967 206.784 28.1322 204.475 28.3321Z" fill="#FEC910"/>
<path d="M211.316 27.9258L192.352 11.7709C194.696 11.6999 197.009 11.6967 199.292 11.7644L218.259 27.9194C215.976 27.8516 213.66 27.8516 211.316 27.9258Z" fill="#FEC710"/>
<path d="M218.261 27.9193L199.293 11.7644C201.777 11.8386 204.218 11.9934 206.621 12.232L225.588 28.387C223.186 28.1483 220.741 27.9935 218.261 27.9193Z" fill="#FEC60F"/>
<path d="M225.588 28.3871L206.621 12.2322C209.314 12.4966 211.959 12.8643 214.549 13.3288L233.516 29.4837C230.923 29.0193 228.281 28.6516 225.588 28.3871Z" fill="#FEC40F"/>
<path d="M233.513 29.4839L214.545 13.329C217.542 13.8676 220.467 14.5384 223.315 15.3383L242.282 31.4964C239.434 30.6934 236.509 30.0225 233.513 29.4839Z" fill="#FEC20F"/>
<path d="M242.281 31.4926L223.314 15.3345C226.92 16.3472 230.403 17.5631 233.757 18.9757L252.724 35.1339C249.37 33.718 245.887 32.5053 242.281 31.4926Z" fill="#FEC00F"/>
<path d="M252.724 35.1344L233.756 18.9762C241.623 22.2917 248.77 26.6908 255.078 32.064L274.045 48.2221C267.737 42.8458 260.593 38.4499 252.724 35.1344Z" fill="#FEBE0F"/>
</g>
<mask id="mask5_94_3975" style="mask-type:luminance" maskUnits="userSpaceOnUse" x="12" y="15" width="173" height="283">
<path d="M62.0331 297.197L43.0658 281.039C20.1444 261.514 8.26608 229.097 13.0458 188.912C22.3182 110.94 90.734 33.2675 165.861 15.4032L184.829 31.5581C109.701 49.4224 41.2855 127.094 32.0131 205.066C27.2366 245.255 39.1117 277.669 62.0331 297.197Z" fill="white"/>
</mask>
<g mask="url(#mask5_94_3975)">
<path d="M62.0335 297.197L43.0662 281.039C36.6771 275.595 31.1459 269.154 26.5952 261.82L45.5625 277.975C50.1132 285.309 55.6444 291.753 62.0335 297.197Z" fill="#FEBE0F"/>
<path d="M45.5617 277.975L26.5944 261.82C24.6271 258.647 22.8403 255.309 21.2471 251.809L40.2144 267.967C41.8076 271.463 43.5944 274.805 45.5617 277.975Z" fill="#FEC00F"/>
<path d="M40.2182 267.968L21.2509 251.809C20.0286 249.123 18.9191 246.343 17.9258 243.475L36.8931 259.634C37.8832 262.501 38.9927 265.281 40.2182 267.968Z" fill="#FEC20F"/>
<path d="M36.8931 259.633L17.9258 243.475C17.0776 241.014 16.3132 238.489 15.6392 235.899L34.6064 252.057C35.2805 254.647 36.0416 257.172 36.8931 259.633Z" fill="#FEC40F"/>
<path d="M34.6065 252.061L15.6392 235.903C15.0296 233.551 14.491 231.149 14.0298 228.698L32.9971 244.856C33.4583 247.307 33.9969 249.71 34.6065 252.061Z" fill="#FEC60F"/>
<path d="M33.0007 244.852L14.0335 228.694C13.6013 226.401 13.2369 224.063 12.9434 221.683L31.9106 237.841C32.2041 240.221 32.5686 242.559 33.0007 244.852Z" fill="#FEC710"/>
<path d="M31.9065 237.844L12.9392 221.686C12.6651 219.493 12.4522 217.261 12.2974 214.997L31.2647 231.152C31.4195 233.416 31.6356 235.648 31.9065 237.844Z" fill="#FEC910"/>
<path d="M31.2684 231.152L12.3011 214.997C12.1495 212.788 12.056 210.546 12.0205 208.269L30.9878 224.427C31.0201 226.701 31.1168 228.943 31.2684 231.152Z" fill="#FECB10"/>
<path d="M30.9844 224.428L12.0171 208.269C11.9816 206.057 12.001 203.819 12.0784 201.545L31.0457 217.703C30.9683 219.974 30.9521 222.215 30.9844 224.428Z" fill="#FECD10"/>
<path d="M31.0459 217.702L12.0786 201.544C12.1528 199.319 12.2818 197.061 12.4624 194.781L31.4297 210.939C31.2459 213.223 31.1201 215.477 31.0459 217.702Z" fill="#FECF10"/>
<path d="M31.4302 210.939L12.4629 194.781C12.6177 192.843 12.8112 190.885 13.0466 188.911C13.0789 188.65 13.1111 188.386 13.1434 188.125L32.1107 204.279C32.0784 204.544 32.0462 204.805 32.0139 205.066C31.7785 207.043 31.585 209.001 31.4302 210.939Z" fill="#FED110"/>
<path d="M32.1104 204.283L13.1431 188.128C13.3624 186.351 13.6139 184.571 13.8945 182.797L32.8618 198.952C32.5812 200.726 32.3297 202.506 32.1104 204.283Z" fill="#FED211"/>
<path d="M32.8618 198.948L13.8945 182.793C14.1751 181.016 14.488 179.239 14.8266 177.465L33.7939 193.624C33.4553 195.397 33.1424 197.175 32.8618 198.948Z" fill="#FED411"/>
<path d="M33.7939 193.624L14.8267 177.465C15.2008 175.514 15.6104 173.566 16.0554 171.621L35.0227 187.78C34.5809 189.724 34.1713 191.676 33.7939 193.624Z" fill="#FED611"/>
<path d="M35.0254 187.783L16.0581 171.625C16.5032 169.673 16.987 167.722 17.503 165.777L36.4671 181.932C35.951 183.877 35.4705 185.828 35.0254 187.783Z" fill="#FED811"/>
<path d="M36.4679 181.933L17.5039 165.778C18.0006 163.897 18.5295 162.024 19.0907 160.153L38.058 176.308C37.4968 178.179 36.9646 180.052 36.4679 181.933Z" fill="#FEDA11"/>
<path d="M38.0572 176.304L19.0898 160.149C19.651 158.279 20.2412 156.418 20.8637 154.56L39.831 170.715C39.2085 172.573 38.6184 174.437 38.0572 176.304Z" fill="#FEDC11"/>
<path d="M39.8271 170.715L20.8599 154.56C21.4662 152.744 22.1015 150.935 22.7659 149.129L41.7332 165.287C41.0721 167.09 40.4335 168.899 39.8271 170.715Z" fill="#FEDD12"/>
<path d="M41.7373 165.284L22.77 149.126C23.4344 147.326 24.1214 145.53 24.8406 143.743L43.8079 159.901C43.0886 161.691 42.3985 163.484 41.7373 165.284Z" fill="#FEDF12"/>
<path d="M43.8081 159.905L24.8408 143.746C25.56 141.953 26.3083 140.166 27.0823 138.386L46.0496 154.544C45.2756 156.321 44.5273 158.108 43.8081 159.905Z" fill="#FEE112"/>
<path d="M46.0489 154.544L27.0815 138.386C27.8556 136.605 28.6587 134.831 29.4875 133.067L48.4516 149.222C47.626 150.99 46.8229 152.763 46.0489 154.544Z" fill="#FEE312"/>
<path d="M48.4553 149.223L29.4912 133.068C30.3459 131.249 31.2263 129.436 32.1358 127.633L51.0999 143.788C50.1904 145.594 49.31 147.407 48.4553 149.223Z" fill="#FEE83F"/>
<path d="M51.0993 143.792L32.1353 127.637C33.0577 125.811 34.0059 123.995 34.9831 122.189L53.9472 138.347C52.9699 140.15 52.0217 141.966 51.0993 143.792Z" fill="#FEEB52"/>
<path d="M53.9479 138.344L34.9839 122.186C36.0546 120.206 37.1609 118.235 38.2961 116.281L57.2634 132.439C56.1249 134.393 55.0187 136.361 53.9479 138.344Z" fill="#FEEC61"/>
<path d="M57.2598 132.439L38.2925 116.28C39.4761 114.242 40.6984 112.22 41.9498 110.214L60.9171 126.372C59.6625 128.378 58.4434 130.397 57.2598 132.439Z" fill="#FEEE6E"/>
<path d="M60.9166 126.372L41.9492 110.214C43.5489 107.653 45.2002 105.121 46.9031 102.619L65.8704 118.777C64.1643 121.276 62.513 123.811 60.9166 126.372Z" fill="#FEF079"/>
<path d="M65.8711 118.777L46.9038 102.618C49.3033 99.0966 51.8028 95.6328 54.3991 92.2399L73.3664 108.395C70.7702 111.788 68.2674 115.252 65.8711 118.777Z" fill="#FFF082"/>
<path d="M73.3638 108.395L54.3965 92.2397C59.5374 85.512 65.0525 79.0552 70.8836 72.9305L89.8509 89.0855C84.0198 95.2101 78.5047 101.667 73.3638 108.395Z" fill="#FFF18B"/>
<path d="M89.8506 89.0857L70.8833 72.9307C73.8343 69.8281 76.866 66.8126 79.9751 63.8873L98.9424 80.0455C95.8365 82.9643 92.8016 85.983 89.8506 89.0857Z" fill="#FFF082"/>
<path d="M98.9414 80.0424L79.9741 63.8843C82.0931 61.8911 84.2475 59.9399 86.4309 58.0338L105.398 74.1888C103.215 76.0981 101.06 78.0493 98.9414 80.0424Z" fill="#FEF079"/>
<path d="M105.398 74.1917L86.4312 58.0367C88.3566 56.3564 90.3078 54.7148 92.2784 53.1086L111.246 69.2668C109.275 70.8697 107.324 72.5146 105.398 74.1917Z" fill="#FEEE6E"/>
<path d="M111.246 69.2639L92.2783 53.1058C93.9586 51.7415 95.6518 50.4031 97.3612 49.0936L116.329 65.2486C114.619 66.5612 112.926 67.8997 111.246 69.2639Z" fill="#FEEC61"/>
<path d="M116.332 65.2515L97.3647 49.0965C99.0483 47.8065 100.748 46.5454 102.461 45.3102L121.428 61.4651C119.712 62.7004 118.016 63.9614 116.332 65.2515Z" fill="#FEEB52"/>
<path d="M121.428 61.4653L102.461 45.3103C104.067 44.1525 105.683 43.0204 107.315 41.9142L126.282 58.0724C124.65 59.1786 123.031 60.3106 121.428 61.4653Z" fill="#FEE83F"/>
<path d="M126.282 58.0726L107.314 41.9144C108.943 40.8114 110.582 39.731 112.233 38.6796L131.2 54.8345C129.549 55.8891 127.907 56.9663 126.282 58.0726Z" fill="#FEE312"/>
<path d="M131.2 54.8341L112.232 38.6792C113.861 37.6374 115.506 36.6247 117.154 35.6378L136.121 51.7928C134.47 52.7797 132.828 53.7956 131.2 54.8341Z" fill="#FEE112"/>
<path d="M136.123 51.7895L117.155 35.6346C118.81 34.6445 120.471 33.6833 122.145 32.748L141.112 48.903C139.438 49.8415 137.777 50.8026 136.123 51.7895Z" fill="#FEDF12"/>
<path d="M141.111 48.9062L122.144 32.7513C123.837 31.8031 125.54 30.8839 127.253 29.9938L146.22 46.1519C144.507 47.0389 142.805 47.958 141.111 48.9062Z" fill="#FEDD12"/>
<path d="M146.22 46.1487L127.253 29.9905C128.966 29.1003 130.688 28.2392 132.42 27.4071L151.387 43.562C149.655 44.3974 147.933 45.2585 146.22 46.1487Z" fill="#FEDC11"/>
<path d="M151.384 43.562L132.417 27.4071C134.203 26.546 135.996 25.7203 137.799 24.9237L156.767 41.0819C154.967 41.8752 153.171 42.7041 151.384 43.562Z" fill="#FEDA11"/>
<path d="M156.77 41.082L137.802 24.9238C139.608 24.1272 141.424 23.3629 143.246 22.6307L162.214 38.7857C160.391 39.5178 158.576 40.2821 156.77 41.082Z" fill="#FED811"/>
<path d="M162.214 38.7861L143.247 22.6312C145.133 21.8732 147.03 21.1508 148.933 20.467L167.9 36.6252C165.997 37.3089 164.101 38.0282 162.214 38.7861Z" fill="#FED611"/>
<path d="M167.897 36.622L148.93 20.4639C150.836 19.7769 152.752 19.1287 154.671 18.5159L173.638 34.674C171.719 35.2868 169.804 35.9351 167.897 36.622Z" fill="#FED411"/>
<path d="M173.637 34.6735L154.67 18.5154C156.473 17.9413 158.285 17.3994 160.098 16.8931L179.062 33.0512C177.249 33.5576 175.44 34.0994 173.637 34.6735Z" fill="#FED211"/>
<path d="M179.066 33.0513L160.102 16.8931C161.917 16.3868 163.736 15.9127 165.559 15.4773L184.526 31.6355C182.7 32.0709 180.881 32.545 179.066 33.0513Z" fill="#FED110"/>
<path d="M184.522 31.6323L165.555 15.4742C165.658 15.4516 165.758 15.4258 165.862 15.4032L184.829 31.5581C184.726 31.5839 184.622 31.6098 184.522 31.6323Z" fill="#FECF10"/>
</g>
<path d="M184.828 31.5576C259.952 13.6966 313.342 62.4033 304.069 140.375C294.803 218.321 226.384 295.994 151.26 313.855C76.1329 331.719 22.7432 283.012 32.0124 205.066C41.2848 127.094 109.704 49.4252 184.828 31.5576ZM154.74 284.589C214.287 270.431 268.518 208.846 275.859 147.087C283.206 85.3021 240.891 46.6999 181.345 60.8584C121.795 75.0202 67.5732 136.579 60.223 198.361C52.8793 260.117 95.1905 298.748 154.74 284.589Z" fill="#FEC00F"/>
</g>
<defs>
<filter id="filter0_f_94_3975" x="0.6" y="0.315577" width="315.916" height="328.63" filterUnits="userSpaceOnUse" color-interpolation-filters="sRGB">
<feFlood flood-opacity="0" result="BackgroundImageFix"/>
<feBlend mode="normal" in="SourceGraphic" in2="BackgroundImageFix" result="shape"/>
<feGaussianBlur stdDeviation="5.7" result="effect1_foregroundBlur_94_3975"/>
</filter>
</defs>
</svg>
