<svg width="584" height="545" viewBox="0 0 584 545" fill="none" xmlns="http://www.w3.org/2000/svg">
<g filter="url(#filter0_d_94_5204)">
<mask id="mask0_94_5204" style="mask-type:luminance" maskUnits="userSpaceOnUse" x="235" y="292" width="159" height="89">
<path d="M381.46 292.354C385.625 299.544 389.786 306.739 393.951 313.93C360.433 357.21 300.402 385.653 248.302 380.052L235.811 358.476C287.915 364.076 347.946 335.629 381.46 292.354Z" fill="white"/>
</mask>
<g mask="url(#mask0_94_5204)">
<path d="M248.302 380.052L235.811 358.476C235.894 358.484 235.977 358.496 236.06 358.503L248.551 380.08C248.468 380.072 248.385 380.06 248.302 380.052Z" fill="#FECF10"/>
<path d="M248.551 380.079L236.06 358.503C237.539 358.657 239.023 358.788 240.514 358.891L253.001 380.467C251.514 380.364 250.03 380.234 248.551 380.079Z" fill="#FED110"/>
<path d="M253.005 380.464L240.518 358.887C242.009 358.986 243.504 359.061 245.003 359.113L257.494 380.689C255.991 380.638 254.496 380.567 253.005 380.464Z" fill="#FED211"/>
<path d="M257.489 380.689L244.998 359.112C246.596 359.164 248.198 359.187 249.804 359.18L262.295 380.752C260.689 380.764 259.087 380.74 257.489 380.689Z" fill="#FED411"/>
<path d="M262.296 380.752L249.805 359.18C251.407 359.168 253.017 359.132 254.627 359.065L267.118 380.642C265.508 380.709 263.898 380.744 262.296 380.752Z" fill="#FED611"/>
<path d="M267.117 380.637L254.626 359.06C256.184 358.997 257.743 358.906 259.301 358.792L271.792 380.368C270.234 380.483 268.676 380.578 267.117 380.637Z" fill="#FED811"/>
<path d="M271.797 380.369L259.306 358.792C260.864 358.677 262.426 358.531 263.989 358.365L276.476 379.941C274.914 380.104 273.355 380.25 271.797 380.369Z" fill="#FEDA11"/>
<path d="M276.476 379.937L263.989 358.361C265.504 358.195 267.019 358.005 268.534 357.791L281.021 379.368C279.506 379.585 277.991 379.775 276.476 379.937Z" fill="#FEDC11"/>
<path d="M281.025 379.372L268.538 357.795C270.053 357.586 271.571 357.348 273.086 357.087L285.573 378.664C284.055 378.925 282.54 379.158 281.025 379.372Z" fill="#FEDD12"/>
<path d="M285.573 378.664L273.086 357.088C274.581 356.83 276.08 356.554 277.579 356.253L290.066 377.83C288.567 378.13 287.072 378.411 285.573 378.664Z" fill="#FEDF12"/>
<path d="M290.067 377.829L277.58 356.253C279.075 355.952 280.574 355.628 282.069 355.28L294.557 376.856C293.061 377.204 291.566 377.529 290.067 377.829Z" fill="#FEE112"/>
<path d="M294.552 376.856L282.064 355.279C283.575 354.931 285.09 354.556 286.597 354.164L299.088 375.741C297.577 376.136 296.066 376.508 294.552 376.856Z" fill="#FEE312"/>
<path d="M299.088 375.741L286.597 354.164C288.108 353.769 289.619 353.354 291.126 352.915L303.613 374.491C302.11 374.93 300.599 375.345 299.088 375.741Z" fill="#FEE83F"/>
<path d="M303.617 374.491L291.13 352.914C292.736 352.448 294.346 351.953 295.944 351.435L308.431 373.012C306.829 373.526 305.227 374.02 303.617 374.491Z" fill="#FEEB52"/>
<path d="M308.428 373.012L295.941 351.435C297.567 350.905 299.188 350.36 300.802 349.778L313.289 371.355C311.679 371.928 310.054 372.482 308.428 373.012Z" fill="#FEEC61"/>
<path d="M313.293 371.354L300.806 349.778C302.709 349.101 304.603 348.393 306.486 347.646L318.973 369.222C317.09 369.966 315.196 370.678 313.293 371.354Z" fill="#FEEE6E"/>
<path d="M318.97 369.222L306.482 347.646C308.622 346.799 310.746 345.909 312.859 344.98L325.346 366.556C323.237 367.486 321.109 368.376 318.97 369.222Z" fill="#FEF079"/>
<path d="M325.349 366.556L312.862 344.979C315.959 343.615 319.028 342.167 322.054 340.628L334.541 362.205C331.512 363.74 328.446 365.195 325.349 366.556Z" fill="#FFF082"/>
<path d="M334.542 362.205L322.055 340.629C328.039 337.595 333.873 334.225 339.498 330.558L351.985 352.135C346.361 355.802 340.526 359.168 334.542 362.205Z" fill="#FFF18B"/>
<path d="M351.984 352.135L339.497 330.559C342.337 328.707 345.121 326.781 347.846 324.78L360.338 346.356C357.612 348.358 354.824 350.288 351.984 352.135Z" fill="#FFF082"/>
<path d="M360.339 346.357L347.848 324.78C349.786 323.364 351.692 321.904 353.563 320.413L366.05 341.99C364.18 343.485 362.277 344.94 360.339 346.357Z" fill="#FEF079"/>
<path d="M366.053 341.994L353.566 320.417C355.034 319.25 356.481 318.06 357.909 316.854L370.397 338.426C368.969 339.637 367.521 340.827 366.053 341.994Z" fill="#FEEE6E"/>
<path d="M370.393 338.421L357.906 316.849C359.275 315.686 360.628 314.503 361.953 313.305L374.444 334.881C373.115 336.084 371.762 337.262 370.393 338.421Z" fill="#FEEC61"/>
<path d="M374.443 334.881L361.952 313.305C363.17 312.209 364.365 311.094 365.544 309.966L378.031 331.547C376.852 332.67 375.654 333.786 374.443 334.881Z" fill="#FEEB52"/>
<path d="M378.03 331.548L365.543 309.967C366.702 308.864 367.841 307.736 368.964 306.601L381.452 328.178C380.328 329.317 379.189 330.44 378.03 331.548Z" fill="#FEE83F"/>
<path d="M381.452 328.181L368.965 306.604C370.041 305.513 371.109 304.401 372.153 303.282L384.644 324.859C383.596 325.978 382.536 327.086 381.452 328.181Z" fill="#FEE312"/>
<path d="M384.645 324.859L372.154 303.282C373.202 302.163 374.226 301.032 375.235 299.889L387.726 321.461C386.713 322.604 385.689 323.74 384.645 324.859Z" fill="#FEE112"/>
<path d="M387.725 321.457L375.234 299.884C376.247 298.737 377.24 297.578 378.209 296.407L390.696 317.984C389.727 319.155 388.734 320.314 387.725 321.457Z" fill="#FEDF12"/>
<path d="M390.696 317.984L378.208 296.408C379.182 295.237 380.135 294.05 381.072 292.856L393.563 314.432C392.626 315.631 391.673 316.817 390.696 317.984Z" fill="#FEDD12"/>
<path d="M393.564 314.432L381.073 292.856C382.03 291.634 382.967 290.395 383.881 289.146L396.368 310.722C395.45 311.972 394.517 313.206 393.564 314.432Z" fill="#FEDC11"/>
</g>
<mask id="mask1_94_5204" style="mask-type:luminance" maskUnits="userSpaceOnUse" x="381" y="228" width="39" height="86">
<path d="M396.001 269.265C402.895 255.315 406.38 241.689 406.775 229C410.94 236.191 415.101 243.385 419.263 250.576C418.867 263.265 415.386 276.888 408.492 290.842C404.509 298.899 399.608 306.624 393.952 313.93C389.787 306.739 385.626 299.544 381.461 292.353C387.121 285.047 392.022 277.323 396.001 269.265Z" fill="white"/>
</mask>
<g mask="url(#mask1_94_5204)">
<path d="M393.564 314.432L381.073 292.856C382.03 291.634 382.967 290.395 383.881 289.146L396.368 310.722C395.45 311.972 394.517 313.206 393.564 314.432Z" fill="#FEDC11"/>
<path d="M396.368 310.726L383.881 289.149C384.791 287.903 385.684 286.642 386.555 285.368L399.042 306.944C398.172 308.218 397.278 309.476 396.368 310.726Z" fill="#FEDA11"/>
<path d="M399.041 306.94L386.554 285.364C387.456 284.047 388.33 282.718 389.18 281.377L401.671 302.953C400.817 304.298 399.939 305.623 399.041 306.94Z" fill="#FED811"/>
<path d="M401.671 302.957L389.18 281.381C390.027 280.048 390.849 278.699 391.644 277.342L404.132 298.919C403.333 300.276 402.514 301.62 401.671 302.957Z" fill="#FED611"/>
<path d="M404.132 298.919L391.645 277.343C392.372 276.105 393.069 274.863 393.749 273.613L406.24 295.189C405.556 296.439 404.856 297.685 404.132 298.919Z" fill="#FED411"/>
<path d="M406.241 295.189L393.75 273.613C394.434 272.363 395.091 271.097 395.724 269.831L408.211 291.408C407.578 292.674 406.921 293.935 406.241 295.189Z" fill="#FED211"/>
<path d="M408.211 291.408L395.724 269.832C395.815 269.642 395.914 269.456 396.001 269.266C396.701 267.854 397.365 266.438 397.994 265.034L410.485 286.61C409.856 288.015 409.192 289.431 408.492 290.843C408.401 291.033 408.306 291.218 408.211 291.408Z" fill="#FED110"/>
<path d="M410.484 286.61L397.993 265.033C398.737 263.376 399.429 261.723 400.074 260.077L412.561 281.654C411.916 283.299 411.224 284.953 410.484 286.61Z" fill="#FECF10"/>
<path d="M412.566 281.654L400.079 260.078C400.736 258.401 401.341 256.727 401.903 255.066L414.39 276.643C413.832 278.304 413.219 279.977 412.566 281.654Z" fill="#FECD10"/>
<path d="M414.386 276.643L401.898 255.066C402.476 253.353 402.998 251.657 403.473 249.964L415.96 271.54C415.489 273.233 414.963 274.934 414.386 276.643Z" fill="#FECB10"/>
<path d="M415.959 271.54L403.472 249.963C403.955 248.227 404.386 246.502 404.766 244.79L417.253 266.366C416.873 268.079 416.446 269.807 415.959 271.54Z" fill="#FEC910"/>
<path d="M417.253 266.37L404.766 244.794C405.177 242.934 405.518 241.091 405.806 239.268L418.297 260.84C418.009 262.668 417.665 264.511 417.253 266.37Z" fill="#FEC710"/>
<path d="M418.296 260.837L405.805 239.264C406.11 237.306 406.347 235.368 406.513 233.446L419 255.022C418.83 256.945 418.601 258.883 418.296 260.837Z" fill="#FEC60F"/>
<path d="M418.997 255.023L406.51 233.446C406.696 231.334 406.791 229.241 406.807 227.181L419.298 248.757C419.282 250.822 419.183 252.91 418.997 255.023Z" fill="#FEC40F"/>
</g>
<mask id="mask2_94_5204" style="mask-type:luminance" maskUnits="userSpaceOnUse" x="173" y="322" width="76" height="59">
<path d="M173.531 322.379C184.772 341.8 206.313 355.304 235.813 358.476L248.304 380.053C218.805 376.88 197.26 363.377 186.018 343.956C182.273 337.481 177.281 328.854 173.531 322.379Z" fill="white"/>
</mask>
<g mask="url(#mask2_94_5204)">
<path d="M186.026 343.959L173.535 322.383C176.83 328.071 181.006 333.256 186.01 337.817L198.497 359.393C193.497 354.833 189.317 349.647 186.026 343.959Z" fill="#FEBE0F"/>
<path d="M198.496 359.393L186.009 337.816C188.141 339.762 190.423 341.594 192.852 343.31L205.339 364.887C202.915 363.17 200.632 361.339 198.496 359.393Z" fill="#FEC00F"/>
<path d="M205.343 364.888L192.856 343.311C194.774 344.664 196.784 345.937 198.88 347.136L211.367 368.712C209.271 367.514 207.261 366.236 205.343 364.888Z" fill="#FEC20F"/>
<path d="M211.369 368.713L198.882 347.136C200.693 348.168 202.572 349.145 204.514 350.055L217.001 371.632C215.059 370.718 213.181 369.741 211.369 368.713Z" fill="#FEC40F"/>
<path d="M217.001 371.632L204.514 350.055C206.246 350.866 208.034 351.629 209.869 352.345L222.36 373.922C220.521 373.206 218.737 372.443 217.001 371.632Z" fill="#FEC60F"/>
<path d="M222.356 373.921L209.865 352.345C211.554 352.997 213.283 353.61 215.055 354.176L227.542 375.753C225.774 375.187 224.041 374.574 222.356 373.921Z" fill="#FEC710"/>
<path d="M227.546 375.753L215.059 354.177C216.759 354.723 218.504 355.225 220.28 355.684L232.771 377.26C230.987 376.802 229.247 376.299 227.546 375.753Z" fill="#FEC910"/>
<path d="M232.767 377.26L220.275 355.683C221.976 356.122 223.709 356.526 225.477 356.886L237.964 378.462C236.2 378.098 234.467 377.699 232.767 377.26Z" fill="#FECB10"/>
<path d="M237.967 378.462L225.48 356.885C227.201 357.233 228.949 357.546 230.737 357.815L243.224 379.391C241.44 379.118 239.688 378.806 237.967 378.462Z" fill="#FECD10"/>
<path d="M243.221 379.392L230.733 357.815C232.399 358.068 234.096 358.29 235.812 358.476L248.303 380.052C246.583 379.866 244.89 379.645 243.221 379.392Z" fill="#FECF10"/>
</g>
<mask id="mask3_94_5204" style="mask-type:luminance" maskUnits="userSpaceOnUse" x="397" y="192" width="23" height="59">
<path d="M406.775 229C407.194 215.52 404.129 203.092 397.966 192.445L410.453 214.021C416.62 224.669 419.681 237.097 419.262 250.577C418.827 249.821 418.242 248.813 417.806 248.057C417.344 247.254 416.727 246.186 416.256 245.383C415.777 244.553 415.137 243.445 414.654 242.611C414.164 241.764 413.511 240.637 413.02 239.787C412.53 238.94 411.877 237.813 411.387 236.962C410.904 236.132 410.264 235.024 409.781 234.19C409.318 233.391 408.701 232.319 408.234 231.52C408.009 231.132 407.712 230.618 407.491 230.238C407.277 229.87 406.878 229.419 406.775 229Z" fill="white"/>
</mask>
<g mask="url(#mask3_94_5204)">
<path d="M418.998 255.023L406.511 233.446C406.697 231.334 406.792 229.241 406.807 227.181L419.298 248.757C419.283 250.822 419.184 252.91 418.998 255.023Z" fill="#FEC40F"/>
<path d="M419.302 248.761L406.811 227.184C406.83 224.779 406.739 222.406 406.538 220.072L419.025 241.649C419.223 243.982 419.317 246.352 419.302 248.761Z" fill="#FEC20F"/>
<path d="M419.022 241.649L406.535 220.072C406.27 217.034 405.819 214.064 405.186 211.173L417.677 232.749C418.31 235.641 418.757 238.611 419.022 241.649Z" fill="#FEC00F"/>
<path d="M417.676 232.75L405.185 211.173C403.725 204.488 401.297 198.207 397.966 192.448L410.453 214.025C413.788 219.78 416.216 226.061 417.676 232.75Z" fill="#FEBE0F"/>
</g>
<path d="M352.733 175.955C413.176 183.798 432.446 235.044 400.918 287.497C371.407 336.599 305.348 372.751 249.138 370.88C189.843 368.902 158.334 325.484 183.289 270.659C210.142 211.668 288.518 167.621 352.733 175.955Z" fill="#F3A500"/>
<path d="M313.372 230.065L306.426 220.113L320.013 221.572L326.959 231.528L313.372 230.065Z" fill="#CF8E00"/>
<path d="M326.96 231.528L319.899 221.331L328.957 202.993L336.022 213.187L326.96 231.528Z" fill="#CF8E00"/>
<path d="M327.924 277.323C337.31 281.263 341.874 289.34 335.375 302.499C328.655 316.102 315.872 324.032 301.85 326.461L291.162 348.097L270.464 345.87L280.139 326.287L266.552 324.827L256.877 344.41L236.151 342.18L245.826 322.596L234.743 321.406L281.559 226.643L292.642 227.837L301.699 209.496L322.422 211.727L313.364 230.064L326.95 231.528L336.012 213.187L356.707 215.414L346.32 236.44C354.1 240.851 357.087 248.322 351.672 259.283C347.143 268.459 338.081 274.764 327.924 277.323ZM287.761 309.726C297.483 310.774 307.798 310.054 313.32 298.872C318.968 287.445 309.515 284.886 299.366 283.798L277.71 281.468L264.958 307.277L287.761 309.726ZM295.663 245.13L284.683 267.348L305.299 269.563C313.585 270.457 323.177 269.942 327.92 260.347C332.65 250.775 324.993 248.279 316.279 247.345L295.663 245.13Z" fill="#FFD12B"/>
<path d="M336.022 213.187L328.958 202.993L349.656 205.22L356.716 215.413L336.022 213.187Z" fill="#CF8E00"/>
<path d="M281.568 226.646L274.5 216.438L285.579 217.628L292.651 227.837L281.568 226.646Z" fill="#CF8E00"/>
<path d="M234.748 321.41L227.711 311.264L274.531 216.505L281.567 226.647L234.748 321.41Z" fill="#CF8E00"/>
<path d="M292.65 227.838L285.506 217.479L294.564 199.141L301.708 209.501L292.65 227.838Z" fill="#CF8E00"/>
<path d="M301.707 209.501L294.564 199.141L315.385 201.325L322.43 211.727L301.707 209.501Z" fill="#CF8E00"/>
<mask id="mask4_94_5204" style="mask-type:luminance" maskUnits="userSpaceOnUse" x="348" y="129" width="92" height="68">
<path d="M427.335 175.417L439.823 196.993C425.639 172.49 398.457 155.462 361.245 151.459L348.754 129.883C385.97 133.885 413.151 150.913 427.335 175.417Z" fill="white"/>
</mask>
<g mask="url(#mask4_94_5204)">
<path d="M361.245 151.463L348.754 129.886C350.929 130.12 353.065 130.397 355.166 130.721L367.657 152.294C365.552 151.973 363.417 151.693 361.245 151.463Z" fill="#FECF10"/>
<path d="M367.657 152.293L355.166 130.721C357.417 131.065 359.632 131.456 361.803 131.899L374.29 153.476C372.119 153.029 369.904 152.638 367.657 152.293Z" fill="#FECD10"/>
<path d="M374.289 153.477L361.802 131.9C364.033 132.351 366.216 132.857 368.36 133.411L380.851 154.987C378.708 154.434 376.516 153.927 374.289 153.477Z" fill="#FECB10"/>
<path d="M380.852 154.988L368.361 133.411C370.607 133.993 372.807 134.629 374.954 135.314L387.442 156.886C385.294 156.202 383.095 155.565 380.852 154.988Z" fill="#FEC910"/>
<path d="M387.442 156.886L374.955 135.313C377.189 136.029 379.373 136.797 381.501 137.623L393.988 159.2C391.86 158.373 389.677 157.602 387.442 156.886Z" fill="#FEC710"/>
<path d="M393.987 159.2L381.5 137.624C383.817 138.525 386.068 139.49 388.255 140.519L400.742 162.095C398.555 161.067 396.304 160.098 393.987 159.2Z" fill="#FEC60F"/>
<path d="M400.743 162.091L388.255 140.515C390.708 141.662 393.077 142.896 395.363 144.197L407.85 165.774C405.564 164.472 403.195 163.238 400.743 162.091Z" fill="#FEC40F"/>
<path d="M407.852 165.773L395.365 144.197C398.011 145.708 400.546 147.318 402.967 149.026L415.454 170.599C413.033 168.894 410.498 167.284 407.852 165.773Z" fill="#FEC20F"/>
<path d="M415.454 170.6L402.967 149.027C406.032 151.183 408.908 153.497 411.601 155.949L424.089 177.526C421.395 175.073 418.515 172.759 415.454 170.6Z" fill="#FEC00F"/>
<path d="M424.089 177.526L411.602 155.949C417.914 161.704 423.183 168.238 427.34 175.421L439.827 196.998C435.666 189.815 430.398 183.281 424.089 177.526Z" fill="#FEBE0F"/>
</g>
<mask id="mask5_94_5204" style="mask-type:luminance" maskUnits="userSpaceOnUse" x="133" y="129" width="229" height="232">
<path d="M156.652 360.96L144.161 339.383C129.068 313.305 128.7 278.767 146.637 242.46C181.441 172.019 271.924 121.627 348.749 129.886L361.241 151.463C284.415 143.204 193.928 193.596 159.125 264.037C141.191 300.343 141.559 334.882 156.652 360.96Z" fill="white"/>
</mask>
<g mask="url(#mask5_94_5204)">
<path d="M156.652 360.96L144.161 339.383C139.952 332.117 136.891 324.19 135.051 315.754L147.538 337.326C149.382 345.767 152.447 353.694 156.652 360.96Z" fill="#FEBE0F"/>
<path d="M147.543 337.327L135.056 315.754C134.257 312.103 133.692 308.358 133.355 304.525L145.847 326.102C146.179 329.934 146.744 333.676 147.543 337.327Z" fill="#FEC00F"/>
<path d="M145.842 326.101L133.351 304.525C133.094 301.582 132.979 298.591 133.003 295.554L145.49 317.13C145.47 320.168 145.585 323.158 145.842 326.101Z" fill="#FEC20F"/>
<path d="M145.495 317.134L133.008 295.558C133.028 292.951 133.154 290.317 133.384 287.647L145.875 309.224C145.641 311.89 145.515 314.524 145.495 317.134Z" fill="#FEC40F"/>
<path d="M145.869 309.223L133.378 287.647C133.588 285.226 133.885 282.782 134.272 280.313L146.759 301.886C146.376 304.354 146.079 306.799 145.869 309.223Z" fill="#FEC60F"/>
<path d="M146.76 301.887L134.272 280.314C134.632 278.004 135.071 275.678 135.586 273.333L148.077 294.909C147.559 297.255 147.123 299.581 146.76 301.887Z" fill="#FEC710"/>
<path d="M148.077 294.913L135.586 273.337C136.065 271.177 136.606 269.002 137.219 266.818L149.707 288.395C149.097 290.578 148.552 292.754 148.077 294.913Z" fill="#FEC910"/>
<path d="M149.707 288.39L137.22 266.814C137.813 264.678 138.474 262.53 139.201 260.375L151.689 281.951C150.965 284.107 150.304 286.254 149.707 288.39Z" fill="#FECB10"/>
<path d="M151.689 281.952L139.202 260.375C139.906 258.279 140.673 256.166 141.504 254.054L153.995 275.631C153.16 277.747 152.397 279.855 151.689 281.952Z" fill="#FECD10"/>
<path d="M153.991 275.631L141.5 254.054C142.315 251.977 143.189 249.893 144.122 247.801L156.614 269.377C155.68 271.474 154.806 273.554 153.991 275.631Z" fill="#FECF10"/>
<path d="M156.618 269.377L144.126 247.801C144.921 246.025 145.76 244.245 146.642 242.457C146.757 242.22 146.875 241.986 146.994 241.745L159.481 263.322C159.363 263.559 159.248 263.796 159.129 264.033C158.247 265.821 157.409 267.601 156.618 269.377Z" fill="#FED110"/>
<path d="M159.48 263.325L146.993 241.749C147.796 240.147 148.626 238.553 149.485 236.974L161.972 258.547C161.113 260.133 160.283 261.723 159.48 263.325Z" fill="#FED211"/>
<path d="M161.973 258.547L149.486 236.975C150.344 235.393 151.23 233.818 152.144 232.264L164.635 253.84C163.717 255.395 162.831 256.969 161.973 258.547Z" fill="#FED411"/>
<path d="M164.635 253.84L152.144 232.264C153.148 230.547 154.188 228.85 155.256 227.161L167.748 248.738C166.676 250.423 165.639 252.124 164.635 253.84Z" fill="#FED611"/>
<path d="M167.744 248.738L155.253 227.161C156.325 225.468 157.432 223.795 158.572 222.13L171.059 243.707C169.923 245.368 168.82 247.045 167.744 248.738Z" fill="#FED811"/>
<path d="M171.062 243.703L158.575 222.126C159.67 220.52 160.798 218.926 161.953 217.352L174.44 238.929C173.285 240.507 172.157 242.097 171.062 243.703Z" fill="#FEDA11"/>
<path d="M174.44 238.928L161.953 217.352C163.108 215.777 164.286 214.215 165.493 212.668L177.98 234.245C176.773 235.792 175.591 237.354 174.44 238.928Z" fill="#FEDC11"/>
<path d="M177.98 234.249L165.493 212.672C166.671 211.161 167.874 209.666 169.104 208.187L181.591 229.763C180.365 231.243 179.159 232.738 177.98 234.249Z" fill="#FEDD12"/>
<path d="M181.592 229.764L169.104 208.187C170.331 206.712 171.581 205.252 172.858 203.805L185.345 225.381C184.072 226.829 182.822 228.288 181.592 229.764Z" fill="#FEDF12"/>
<path d="M185.344 225.378L172.857 203.801C174.135 202.354 175.436 200.918 176.761 199.498L189.252 221.074C187.927 222.494 186.622 223.93 185.344 225.378Z" fill="#FEE112"/>
<path d="M189.253 221.073L176.762 199.497C178.087 198.077 179.436 196.673 180.809 195.284L193.3 216.861C191.927 218.249 190.578 219.653 189.253 221.073Z" fill="#FEE312"/>
<path d="M193.299 216.861L180.808 195.284C182.22 193.857 183.66 192.44 185.119 191.044L197.611 212.621C196.151 214.017 194.711 215.433 193.299 216.861Z" fill="#FEE83F"/>
<path d="M197.61 212.622L185.119 191.045C186.598 189.633 188.101 188.237 189.628 186.86L202.115 208.437C200.593 209.813 199.09 211.205 197.61 212.622Z" fill="#FEEB52"/>
<path d="M202.116 208.436L189.629 186.859C191.302 185.345 193.003 183.857 194.727 182.394L207.215 203.97C205.486 205.434 203.789 206.921 202.116 208.436Z" fill="#FEEC61"/>
<path d="M207.211 203.971L194.724 182.394C196.523 180.867 198.351 179.368 200.198 177.893L212.689 199.469C210.838 200.949 209.014 202.448 207.211 203.971Z" fill="#FEEE6E"/>
<path d="M212.688 199.47L200.197 177.893C202.562 176.011 204.967 174.175 207.407 172.384L219.895 193.96C217.454 195.756 215.049 197.591 212.688 199.47Z" fill="#FEF079"/>
<path d="M219.9 193.964L207.413 172.387C210.854 169.864 214.366 167.435 217.95 165.102L230.441 186.678C226.853 189.012 223.341 191.44 219.9 193.964Z" fill="#FFF082"/>
<path d="M230.435 186.677L217.944 165.101C225.04 160.473 232.401 156.229 239.948 152.396L252.435 173.973C244.888 177.806 237.531 182.05 230.435 186.677Z" fill="#FFF18B"/>
<path d="M252.439 173.973L239.952 152.397C243.773 150.458 247.641 148.627 251.549 146.906L264.036 168.483C260.128 170.204 256.26 172.035 252.439 173.973Z" fill="#FFF082"/>
<path d="M264.036 168.487L251.549 146.911C254.211 145.736 256.897 144.617 259.595 143.549L272.086 165.125C269.384 166.193 266.702 167.313 264.036 168.487Z" fill="#FEF079"/>
<path d="M272.082 165.125L259.591 143.548C261.968 142.611 264.358 141.713 266.755 140.854L279.242 162.431C276.845 163.286 274.456 164.187 272.082 165.125Z" fill="#FEEE6E"/>
<path d="M279.242 162.432L266.755 140.855C268.792 140.127 270.837 139.435 272.89 138.771L285.377 160.347C283.328 161.012 281.283 161.708 279.242 162.432Z" fill="#FEEC61"/>
<path d="M285.38 160.347L272.893 138.77C274.91 138.117 276.935 137.496 278.964 136.903L291.451 158.48C289.422 159.073 287.397 159.694 285.38 160.347Z" fill="#FEEB52"/>
<path d="M291.448 158.48L278.961 136.903C280.86 136.346 282.766 135.824 284.673 135.325L297.16 156.902C295.253 157.4 293.351 157.926 291.448 158.48Z" fill="#FEE83F"/>
<path d="M297.163 156.902L284.676 135.325C286.578 134.827 288.485 134.356 290.395 133.913L302.882 155.49C300.976 155.933 299.065 156.404 297.163 156.902Z" fill="#FEE312"/>
<path d="M302.884 155.49L290.396 133.913C292.283 133.478 294.166 133.067 296.057 132.687L308.548 154.264C306.657 154.647 304.77 155.055 302.884 155.49Z" fill="#FEE112"/>
<path d="M308.546 154.267L296.055 132.69C297.946 132.307 299.837 131.955 301.727 131.634L314.214 153.211C312.324 153.531 310.433 153.883 308.546 154.267Z" fill="#FEDF12"/>
<path d="M314.211 153.212L301.724 131.635C303.634 131.307 305.552 131.01 307.463 130.741L319.95 152.318C318.04 152.587 316.129 152.883 314.211 153.212Z" fill="#FEDD12"/>
<path d="M319.951 152.322L307.463 130.745C309.374 130.476 311.288 130.239 313.199 130.029L325.686 151.606C323.775 151.816 321.865 152.049 319.951 152.322Z" fill="#FEDC11"/>
<path d="M325.689 151.605L313.202 130.029C315.171 129.815 317.141 129.633 319.107 129.487L331.598 151.063C329.628 151.21 327.659 151.392 325.689 151.605Z" fill="#FEDA11"/>
<path d="M331.598 151.064L319.107 129.487C321.077 129.341 323.047 129.226 325.009 129.143L337.496 150.719C335.534 150.802 333.568 150.913 331.598 151.064Z" fill="#FED811"/>
<path d="M337.497 150.719L325.01 129.142C327.043 129.055 329.072 129.012 331.093 129L343.584 150.577C341.559 150.589 339.53 150.636 337.497 150.719Z" fill="#FED611"/>
<path d="M343.582 150.577L331.091 129C333.12 128.993 335.146 129.016 337.155 129.08L349.646 150.656C347.629 150.593 345.611 150.565 343.582 150.577Z" fill="#FED411"/>
<path d="M349.647 150.661L337.156 129.084C339.054 129.147 340.937 129.238 342.82 129.365L355.311 150.941C353.428 150.815 351.542 150.72 349.647 150.661Z" fill="#FED211"/>
<path d="M355.311 150.941L342.82 129.364C344.703 129.495 346.574 129.657 348.441 129.851L360.928 151.427C359.061 151.229 357.19 151.067 355.311 150.941Z" fill="#FED110"/>
<path d="M360.928 151.427L348.441 129.851C348.544 129.863 348.65 129.874 348.753 129.886L361.244 151.463C361.138 151.451 361.035 151.439 360.928 151.427Z" fill="#FECF10"/>
</g>
<path d="M361.245 151.463C438.07 159.722 472.146 223.502 437.342 293.944C402.547 364.361 312.063 414.753 235.238 406.494C158.413 398.235 124.337 334.455 159.129 264.033C193.932 193.596 284.419 143.204 361.245 151.463ZM248.303 380.052C309.196 386.599 380.923 346.637 408.492 290.843C436.069 235.028 409.061 184.475 348.164 177.929C287.267 171.382 215.556 211.32 187.975 267.138C160.41 322.929 187.41 373.506 248.303 380.052Z" fill="#FEC00F"/>
</g>
<defs>
<filter id="filter0_d_94_5204" x="0.199997" y="0.199997" width="583.586" height="543.98" filterUnits="userSpaceOnUse" color-interpolation-filters="sRGB">
<feFlood flood-opacity="0" result="BackgroundImageFix"/>
<feColorMatrix in="SourceAlpha" type="matrix" values="0 0 0 0 0 0 0 0 0 0 0 0 0 0 0 0 0 0 127 0" result="hardAlpha"/>
<feOffset dy="4"/>
<feGaussianBlur stdDeviation="66.4"/>
<feComposite in2="hardAlpha" operator="out"/>
<feColorMatrix type="matrix" values="0 0 0 0 1 0 0 0 0 0.733333 0 0 0 0 0 0 0 0 1 0"/>
<feBlend mode="normal" in2="BackgroundImageFix" result="effect1_dropShadow_94_5204"/>
<feBlend mode="normal" in="SourceGraphic" in2="effect1_dropShadow_94_5204" result="shape"/>
</filter>
</defs>
</svg>
