<svg width="99" height="58" viewBox="0 0 99 58" fill="none" xmlns="http://www.w3.org/2000/svg">
<mask id="mask0_94_3140" style="mask-type:luminance" maskUnits="userSpaceOnUse" x="14" y="4" width="69" height="31">
<path d="M46.9 17.8679C34.054 21.7949 23.435 27.9369 17.82 34.0559C16.866 31.0199 15.913 27.9849 14.959 24.9499C20.573 18.8309 31.193 12.6899 44.039 8.76191C58.916 4.21391 72.7 3.88191 80.023 7.25291C80.977 10.2889 81.931 13.3239 82.885 16.3589C75.561 12.9879 61.778 13.3199 46.9 17.8679Z" fill="white"/>
</mask>
<g mask="url(#mask0_94_3140)">
<path d="M81.8956 8.28986L84.7566 17.3959C83.8606 16.7969 82.8126 16.2789 81.6306 15.8409L78.7686 6.73486C79.9506 7.17286 80.9986 7.69186 81.8956 8.28986Z" fill="#FECF10"/>
<path d="M78.7686 6.73475L81.6306 15.8407C80.6206 15.4667 79.5126 15.1527 78.3166 14.8977L75.4546 5.79175C76.6506 6.04675 77.7586 6.36075 78.7686 6.73475Z" fill="#FED210"/>
<path d="M75.4548 5.79288L78.3168 14.8989C77.1868 14.6589 75.9788 14.4719 74.7018 14.3399L71.8408 5.23389C73.1168 5.36489 74.3248 5.55188 75.4548 5.79288Z" fill="#FED411"/>
<path d="M71.8396 5.23368L74.7006 14.3397C73.4046 14.2057 72.0366 14.1287 70.6066 14.1087L67.7456 5.00269C69.1756 5.02269 70.5436 5.09968 71.8396 5.23368Z" fill="#FED711"/>
<path d="M67.747 5.0028L70.608 14.1088C69.06 14.0878 67.44 14.1328 65.759 14.2478L62.897 5.1418C64.578 5.0268 66.198 4.9818 67.747 5.0028Z" fill="#FED911"/>
<path d="M62.8967 5.14185L65.7587 14.2478C63.7897 14.3818 61.7387 14.6098 59.6247 14.9338L56.7627 5.82784C58.8777 5.50384 60.9287 5.27585 62.8967 5.14185Z" fill="#FEDC11"/>
<path d="M56.7626 5.8269L59.6246 14.9329C55.5686 15.5539 51.2816 16.5279 46.8996 17.8679C43.3006 18.9679 39.8776 20.2419 36.6896 21.6409L33.8276 12.5349C37.0156 11.1369 40.4396 9.86291 44.0386 8.76291C48.4206 7.42191 52.7076 6.4479 56.7626 5.8269Z" fill="#FEDE12"/>
<path d="M33.8277 12.5349L36.6897 21.6409C34.7497 22.4919 32.8957 23.3899 31.1447 24.3219L28.2827 15.2159C30.0337 14.2839 31.8867 13.3859 33.8277 12.5349Z" fill="#FEDC11"/>
<path d="M28.2816 15.2158L31.1436 24.3218C29.6056 25.1408 28.1456 25.9868 26.7726 26.8518L23.9116 17.7458C25.2836 16.8798 26.7436 16.0348 28.2816 15.2158Z" fill="#FED911"/>
<path d="M23.9117 17.7449L26.7727 26.8509C25.4917 27.6579 24.2867 28.4819 23.1647 29.3179L20.3037 20.2119C21.4247 19.3769 22.6307 18.5529 23.9117 17.7449Z" fill="#FED711"/>
<path d="M20.304 20.2119L23.165 29.3179C22.056 30.1439 21.029 30.9799 20.091 31.8209L17.23 22.7149C18.168 21.8749 19.195 21.0379 20.304 20.2119Z" fill="#FED411"/>
<path d="M17.2298 22.7148L20.0908 31.8208C19.0948 32.7138 18.1988 33.6128 17.4128 34.5098L14.5508 25.4038C15.3378 24.5068 16.2338 23.6088 17.2298 22.7148Z" fill="#FED210"/>
</g>
<mask id="mask1_94_3140" style="mask-type:luminance" maskUnits="userSpaceOnUse" x="80" y="7" width="9" height="15">
<path d="M82.8849 16.3599C81.9309 13.3249 80.9769 10.2899 80.0229 7.25391C82.6979 8.48491 84.5119 10.2109 85.2009 12.4059L88.0629 21.5129C87.3739 19.3169 85.5599 17.5909 82.8849 16.3599Z" fill="white"/>
</mask>
<g mask="url(#mask1_94_3140)">
<path d="M85.201 12.4048L88.062 21.5108C87.548 19.8758 86.41 18.5008 84.756 17.3968L81.895 8.29077C83.549 9.39477 84.687 10.7698 85.201 12.4048Z" fill="#FECD10"/>
<path d="M81.896 8.28986L84.757 17.3959C83.861 16.7969 82.813 16.2789 81.631 15.8409L78.769 6.73486C79.951 7.17286 80.999 7.69186 81.896 8.28986Z" fill="#FECF10"/>
</g>
<mask id="mask2_94_3140" style="mask-type:luminance" maskUnits="userSpaceOnUse" x="10" y="24" width="8" height="21">
<path d="M13.7202 44.562C13.7462 44.662 13.7752 44.7599 13.8052 44.8579L10.9432 35.752C10.9132 35.654 10.8842 35.5559 10.8582 35.4559C10.0232 32.2839 11.5902 28.621 14.9582 24.95C15.9122 27.986 16.8662 31.021 17.8192 34.056C14.4512 37.728 12.8842 41.391 13.7202 44.562Z" fill="white"/>
</mask>
<g mask="url(#mask2_94_3140)">
<path d="M17.2303 22.7148L20.0913 31.8208C19.0953 32.7138 18.1993 33.6128 17.4133 34.5098L14.5513 25.4038C15.3383 24.5068 16.2343 23.6088 17.2303 22.7148Z" fill="#FED210"/>
<path d="M14.5515 25.4038L17.4135 34.5098C16.4925 35.5598 15.7205 36.6078 15.1125 37.6418L12.2505 28.5358C12.8595 27.5018 13.6305 26.4538 14.5515 25.4038Z" fill="#FECF10"/>
<path d="M12.2503 28.5359L15.1123 37.6419C13.6833 40.0729 13.1583 42.4279 13.7203 44.5609C13.7463 44.6609 13.7753 44.7599 13.8053 44.8569L10.9443 35.7509C10.9133 35.6529 10.8843 35.5539 10.8583 35.4549C10.2973 33.3229 10.8223 30.9669 12.2503 28.5359Z" fill="#FECD10"/>
</g>
<path d="M46.1663 11.3361C26.8353 16.5421 10.2743 27.0691 10.5573 35.2901C10.8763 44.5671 31.8413 46.2251 55.2973 38.5321C76.7603 31.4921 88.9783 20.1621 84.6343 13.4051C80.7223 7.31909 64.1463 6.49309 46.1663 11.3361Z" fill="#F1B700"/>
<path d="M49.3743 24.409C52.8093 23.359 56.2932 22.534 56.7502 24.269C57.1972 25.964 54.0833 27.2 50.8013 28.204L43.1052 30.557L42.0732 26.641L49.3743 24.409Z" fill="#CF8E00"/>
<path d="M64.4123 22.0149C65.3463 24.9839 60.4403 27.3309 58.4053 28.2759L60.3783 34.5769C62.4043 33.6449 67.1793 31.3529 66.2463 28.3889L64.4123 22.0149Z" fill="#CF8E00"/>
<path d="M40.0591 34.1919L41.1551 38.3089L37.4061 39.4549L36.3101 35.3379L40.0591 34.1919Z" fill="#CF8E00"/>
<path d="M51.6312 30.6531L52.7372 34.8821L48.1602 36.2811L47.0542 32.0531L51.6312 30.6531Z" fill="#CF8E00"/>
<path d="M47.8349 35.0181L48.7538 38.3201L41.7589 40.4591L40.8398 37.1561L47.8349 35.0181Z" fill="#E59C00"/>
<path d="M59.4061 31.48L60.4471 34.55L53.2151 36.786L52.4121 33.618L59.4061 31.48Z" fill="#E59C00"/>
<path d="M47.582 19.0059L40.623 21.1329L41.511 24.5049L48.47 22.3779C51.266 21.5229 54.1931 20.3879 53.8091 18.9339C53.4281 17.4819 50.522 18.1069 47.582 19.0059Z" fill="#CF8E00"/>
<path d="M42.9821 4.74999C68.9131 -3.17801 92.2221 -0.954007 95.034 9.72099C97.846 20.4 79.0951 35.483 53.1651 43.41C27.2351 51.338 3.93406 49.111 1.12206 38.432C-1.68994 27.758 17.0511 12.677 42.9821 4.74999ZM52.1081 39.399C72.6621 33.115 87.5161 21.163 85.2871 12.702C83.0591 4.24399 64.5931 2.47899 44.0391 8.76299C23.4851 15.047 8.63106 26.999 10.8591 35.457C13.0871 43.918 31.5541 45.683 52.1081 39.399Z" fill="#FED411"/>
<path d="M57.1499 20.551C60.8839 19.865 63.9149 20.119 64.4398 22.114C64.9828 24.176 62.5029 26.381 58.5439 28.204L59.4059 31.48L52.4108 33.618L51.6299 30.653L47.0538 32.052L47.8349 35.017L40.8398 37.156L40.0589 34.191L36.3098 35.337L32.5269 20.972L36.2758 19.826L35.5428 17.043L42.5379 14.904L43.2708 17.687L47.8479 16.288L47.1149 13.504L54.1098 11.365L54.9489 14.552C58.2679 14.097 60.6879 14.469 61.1259 16.131C61.4919 17.524 59.8529 19.157 57.1499 20.551ZM50.8009 28.204C54.0829 27.201 57.1958 25.965 56.7498 24.269C56.2928 22.533 52.8089 23.358 49.3739 24.409L42.0728 26.641L43.1048 30.557L50.8009 28.204ZM40.6228 21.133L41.5108 24.505L48.4698 22.378C51.2658 21.523 54.1929 20.388 53.8089 18.934C53.4269 17.483 50.5208 18.107 47.5818 19.006L40.6228 21.133Z" fill="#FFD02B"/>
<mask id="mask3_94_3140" style="mask-type:luminance" maskUnits="userSpaceOnUse" x="1" y="9" width="98" height="49">
<path d="M94.925 9.3479L97.786 18.4539C97.825 18.5779 97.861 18.7019 97.894 18.8279C100.707 29.5069 81.956 44.5899 56.025 52.5179C30.4 60.3519 7.344 58.2699 4.09 47.9139L1.229 38.8079C4.483 49.1629 27.54 51.2459 53.164 43.4119C79.094 35.4849 97.845 20.4009 95.033 9.7229C95 9.5959 94.964 9.4709 94.925 9.3479Z" fill="white"/>
</mask>
<g mask="url(#mask3_94_3140)">
<path d="M94.9249 9.3479L97.7859 18.4539C97.8249 18.5779 97.8609 18.7019 97.8939 18.8279C98.6039 21.5219 97.9409 24.4949 96.1369 27.5639L93.2749 18.4579C95.0789 15.3889 95.7409 12.4159 95.0319 9.7219C94.9999 9.5959 94.9639 9.4709 94.9249 9.3479Z" fill="#FED32C"/>
<path d="M93.2761 18.458L96.1381 27.564C95.3701 28.87 94.3971 30.192 93.2341 31.518L90.3721 22.412C91.5351 21.086 92.5091 19.763 93.2761 18.458Z" fill="#FED42C"/>
<path d="M90.3722 22.4109L93.2342 31.5169C92.2412 32.6489 91.1102 33.7829 89.8542 34.9099L86.9922 25.8039C88.2492 24.6769 89.3802 23.5429 90.3722 22.4109Z" fill="#FED72C"/>
<path d="M86.9918 25.804L89.8538 34.91C88.6698 35.972 87.3738 37.028 85.9738 38.07L83.1118 28.964C84.5108 27.921 85.8078 26.865 86.9918 25.804Z" fill="#FED92D"/>
<path d="M83.1121 28.9639L85.9741 38.0699C84.5591 39.1239 83.0381 40.1639 81.4211 41.1829L78.5591 32.0769C80.1761 31.0579 81.6971 30.0169 83.1121 28.9639Z" fill="#FEDB2D"/>
<path d="M78.559 32.0759L81.421 41.1819C79.689 42.2739 77.846 43.3409 75.905 44.3739L73.043 35.2679C74.985 34.2349 76.827 33.1679 78.559 32.0759Z" fill="#FEDD2D"/>
<path d="M73.0439 35.2678L75.9059 44.3738C73.6949 45.5508 71.3569 46.6828 68.9079 47.7568L66.0459 38.6498C68.4949 37.5768 70.8329 36.4448 73.0439 35.2678Z" fill="#FEE02D"/>
<path d="M66.0458 38.6509L68.9078 47.7579C64.8858 49.5229 60.5658 51.1289 56.0258 52.5179C50.4988 54.2079 45.0898 55.4369 39.9738 56.2199L37.1128 47.1139C42.2288 46.3299 47.6368 45.1019 53.1648 43.4109C57.7038 42.0229 62.0238 40.4159 66.0458 38.6509Z" fill="#FFE543"/>
<path d="M37.113 47.1128L39.974 56.2188C37.307 56.6268 34.721 56.9148 32.237 57.0838L29.376 47.9778C31.859 47.8088 34.446 47.5218 37.113 47.1128Z" fill="#FEE02D"/>
<path d="M29.3758 47.9778L32.2368 57.0838C30.1168 57.2278 28.0728 57.2858 26.1198 57.2588L23.2588 48.1528C25.2108 48.1798 27.2558 48.1218 29.3758 47.9778Z" fill="#FEDD2D"/>
<path d="M23.2578 48.1528L26.1188 57.2588C24.3158 57.2338 22.5898 57.1368 20.9548 56.9678L18.0928 47.8618C19.7298 48.0298 21.4548 48.1278 23.2578 48.1528Z" fill="#FEDB2D"/>
<path d="M18.0932 47.861L20.9552 56.967C19.3442 56.801 17.8192 56.566 16.3932 56.262L13.5322 47.156C14.9582 47.46 16.4832 47.695 18.0932 47.861Z" fill="#FED92D"/>
<path d="M13.5321 47.1568L16.3931 56.2628C14.8851 55.9418 13.4861 55.5448 12.2111 55.0728L9.34912 45.9668C10.6251 46.4388 12.0241 46.8358 13.5321 47.1568Z" fill="#FED72C"/>
<path d="M9.34984 45.9669L12.2118 55.0729C10.7198 54.5209 9.39683 53.8649 8.26483 53.1099L5.40283 44.0039C6.53483 44.7589 7.85784 45.4139 9.34984 45.9669Z" fill="#FED42C"/>
<path d="M5.40398 44.0039L8.26598 53.1099C6.17798 51.7149 4.74098 49.9789 4.09098 47.9129L1.22998 38.8069C1.87798 40.8729 3.31498 42.6099 5.40398 44.0039Z" fill="#FED32C"/>
</g>
</svg>
