<svg width="566" height="601" viewBox="0 0 566 601" fill="none" xmlns="http://www.w3.org/2000/svg">
<g filter="url(#filter0_df_136_145)">
<mask id="mask0_136_145" style="mask-type:luminance" maskUnits="userSpaceOnUse" x="160" y="167" width="183" height="234">
<path d="M243.471 273.207C274.476 232.245 311.618 202.223 342.674 190.154C331.746 182.702 320.821 175.254 309.897 167.802C278.843 179.868 241.703 209.895 210.695 250.855C174.789 298.293 156.954 347.39 161.583 378.176C172.51 385.629 183.434 393.08 194.358 400.532C189.73 369.742 207.564 320.648 243.471 273.207Z" fill="white"/>
</mask>
<g mask="url(#mask0_136_145)">
<path d="M163.462 386.279L196.238 408.631C194.93 404.617 194.126 400.164 193.801 395.336L161.026 372.98C161.351 377.809 162.159 382.263 163.462 386.279Z" fill="#FECF10"/>
<path d="M161.026 372.981L193.801 395.336C193.524 391.211 193.603 386.813 194.023 382.176L161.248 359.821C160.828 364.457 160.749 368.856 161.026 372.981Z" fill="#FED210"/>
<path d="M161.251 359.824L194.026 382.179C194.425 377.8 195.129 373.21 196.134 368.446L163.358 346.094C162.35 350.854 161.646 355.443 161.251 359.824Z" fill="#FED411"/>
<path d="M163.36 346.09L196.136 368.442C197.156 363.606 198.489 358.588 200.123 353.422L167.346 331.071C165.713 336.236 164.38 341.255 163.36 346.09Z" fill="#FED711"/>
<path d="M167.345 331.075L200.121 353.426C201.893 347.835 204.012 342.073 206.484 336.184L173.709 313.829C171.237 319.718 169.118 325.48 167.345 331.075Z" fill="#FED911"/>
<path d="M173.709 313.828L206.484 336.183C209.376 329.284 212.74 322.215 216.561 315.047L183.786 292.692C179.963 299.864 176.6 306.933 173.709 313.828Z" fill="#FEDC11"/>
<path d="M183.781 292.691L216.556 315.047C223.885 301.293 232.893 287.177 243.471 273.205C252.156 261.729 261.323 251.116 270.705 241.513L237.93 219.158C228.552 228.762 219.384 239.378 210.699 250.855C200.117 264.826 191.108 278.941 183.781 292.691Z" fill="#FEDE12"/>
<path d="M237.93 219.157L270.705 241.512C276.413 235.668 282.205 230.196 288.008 225.138L255.233 202.783C249.43 207.84 243.639 213.31 237.93 219.157Z" fill="#FEDC11"/>
<path d="M255.234 202.78L288.009 225.135C293.108 220.693 298.221 216.568 303.305 212.78L270.529 190.428C265.442 194.211 260.333 198.338 255.234 202.78Z" fill="#FED911"/>
<path d="M270.525 190.427L303.301 212.778C308.045 209.244 312.764 206.006 317.432 203.082L284.656 180.73C279.993 183.652 275.272 186.894 270.525 190.427Z" fill="#FED711"/>
<path d="M284.655 180.732L317.432 203.083C322.044 200.193 326.599 197.61 331.066 195.353L298.29 173.002C293.826 175.259 289.268 177.841 284.655 180.732Z" fill="#FED411"/>
<path d="M298.291 173L331.067 195.352C335.811 192.956 340.459 190.928 344.967 189.292L312.192 166.937C307.683 168.576 303.039 170.606 298.291 173Z" fill="#FED210"/>
</g>
<mask id="mask1_136_145" style="mask-type:luminance" maskUnits="userSpaceOnUse" x="161" y="378" width="48" height="48">
<path d="M194.362 400.532C183.438 393.081 172.515 385.629 161.587 378.177C163.276 389.422 167.965 398.229 175.867 403.615L208.646 425.971C200.74 420.584 196.051 411.777 194.362 400.532Z" fill="white"/>
</mask>
<g mask="url(#mask1_136_145)">
<path d="M175.863 403.614L208.64 425.965C202.755 421.951 198.652 416.038 196.244 408.631L163.468 386.279C165.875 393.687 169.979 399.599 175.863 403.614Z" fill="#FECD10"/>
<path d="M163.462 386.282L196.238 408.634C194.93 404.62 194.126 400.167 193.801 395.338L161.026 372.983C161.351 377.812 162.159 382.266 163.462 386.282Z" fill="#FECF10"/>
</g>
<mask id="mask2_136_145" style="mask-type:luminance" maskUnits="userSpaceOnUse" x="309" y="161" width="82" height="30">
<path d="M389.356 189.344C389.722 189.57 390.077 189.804 390.431 190.042L357.656 167.686C357.302 167.449 356.947 167.215 356.581 166.989C344.97 159.783 328.529 160.56 309.898 167.798C320.826 175.251 331.749 182.702 342.674 190.15C361.309 182.913 377.75 182.136 389.356 189.344Z" fill="white"/>
</mask>
<g mask="url(#mask2_136_145)">
<path d="M298.29 173.001L331.066 195.353C335.81 192.957 340.458 190.929 344.966 189.293L312.191 166.938C307.682 168.577 303.038 170.607 298.29 173.001Z" fill="#FED210"/>
<path d="M312.19 166.939L344.965 189.294C350.243 187.376 355.335 185.99 360.175 185.176L327.4 162.82C322.559 163.639 317.468 165.02 312.19 166.939Z" fill="#FECF10"/>
<path d="M327.4 162.821L360.175 185.176C371.553 183.262 381.545 184.497 389.352 189.344C389.718 189.57 390.077 189.805 390.427 190.042L357.651 167.69C357.298 167.449 356.939 167.213 356.577 166.989C348.772 162.147 338.776 160.911 327.4 162.821Z" fill="#FECD10"/>
</g>
<path d="M218.381 261.911C262.24 199.339 323.936 153.774 356.282 165.688C392.784 179.131 374.257 256.673 315.568 330.774C261.863 398.578 202.178 427.47 180.518 402.902C161.008 380.776 177.584 320.11 218.381 261.911Z" fill="#F1B700"/>
<path d="M266.513 290.768C258.223 301.721 250.769 313.149 257.12 317.091C263.323 320.944 271.968 311.391 279.892 300.927L298.468 276.387L284.135 267.488L266.513 290.768Z" fill="#CF8E00"/>
<path d="M238.977 341.639C249.663 348.931 264.872 334.411 271.067 328.35L293.755 343.792C287.622 349.838 272.789 363.961 262.122 356.679L238.977 341.639Z" fill="#CF8E00"/>
<path d="M316.57 270.258L331.625 279.653L340.673 267.699L325.618 258.303L316.57 270.258Z" fill="#CF8E00"/>
<path d="M288.634 307.155L304.122 316.736L315.168 302.141L299.684 292.562L288.634 307.155Z" fill="#CF8E00"/>
<path d="M310.537 299.298L322.564 306.977L339.449 284.673L327.418 276.993L310.537 299.298Z" fill="#E59C00"/>
<path d="M282.607 336.194L293.565 344.004L311.12 320.977L299.487 313.892L282.607 336.194Z" fill="#E59C00"/>
<path d="M247.179 277.166L263.973 254.976L276.316 262.636L259.522 284.827C252.772 293.742 244.753 302.757 239.432 299.45C234.116 296.156 240.082 286.54 247.179 277.166Z" fill="#CF8E00"/>
<path d="M196.011 241.738C133.422 324.422 114.337 411.139 153.41 435.395C192.499 459.655 274.933 412.259 337.516 329.577C400.104 246.897 419.167 160.204 380.078 135.944C341.009 111.69 258.596 159.053 196.011 241.738ZM322.836 320.462C273.225 386.001 207.909 423.542 176.94 404.316C145.982 385.099 161.089 316.395 210.699 250.856C260.31 185.317 325.626 147.776 356.584 166.994C387.554 186.216 372.446 254.923 322.836 320.462Z" fill="#FED411"/>
<path d="M241.858 313.6C234.657 326.11 232.035 337.339 239.338 341.87C246.886 346.555 258.624 340.565 270.615 328.753L282.607 336.193L299.488 313.888L288.636 307.151L299.681 292.56L310.533 299.297L327.418 276.993L316.566 270.256L325.614 258.302L273.033 225.666L263.985 237.62L253.799 231.297L236.914 253.601L247.1 259.924L236.054 274.519L225.864 268.195L208.978 290.499L220.644 297.738C214.859 309.063 213.438 318.253 219.521 322.03C224.621 325.192 233.077 321.466 241.858 313.6ZM279.892 300.926C271.972 311.392 263.328 320.941 257.12 317.09C250.765 313.147 258.219 301.719 266.514 290.767L284.135 267.487L298.468 276.386L279.892 300.926ZM263.973 254.975L276.316 262.636L259.522 284.826C252.772 293.742 244.753 302.756 239.432 299.449C234.121 296.153 240.084 286.536 247.179 277.166L263.973 254.975Z" fill="#FFD02B"/>
<mask id="mask3_136_145" style="mask-type:luminance" maskUnits="userSpaceOnUse" x="152" y="136" width="282" height="329">
<path d="M152.058 434.508L184.834 456.859C185.28 457.164 185.73 457.458 186.192 457.743C225.279 482.007 307.713 434.611 370.302 351.927C432.15 270.218 451.496 184.599 414.221 159.178L381.445 136.826C418.716 162.246 399.373 247.87 337.525 329.575C274.942 412.257 192.504 459.652 153.419 435.393C152.954 435.106 152.5 434.811 152.058 434.508Z" fill="white"/>
</mask>
<g mask="url(#mask3_136_145)">
<path d="M152.058 434.507L184.834 456.859C185.281 457.164 185.73 457.457 186.192 457.743C196.052 463.865 208.667 465.423 223.03 463.008L190.255 440.653C175.892 443.068 163.278 441.507 153.417 435.388C152.954 435.106 152.5 434.811 152.058 434.507Z" fill="#FED32C"/>
<path d="M190.254 440.657L223.029 463.012C229.141 461.983 235.563 460.239 242.229 457.817L209.454 435.461C202.788 437.883 196.361 439.63 190.254 440.657Z" fill="#FED42C"/>
<path d="M209.449 435.46L242.224 457.816C247.914 455.747 253.778 453.186 259.764 450.166L226.989 427.81C221.002 430.834 215.138 433.396 209.449 435.46Z" fill="#FED72C"/>
<path d="M226.99 427.809L259.765 450.165C265.406 447.317 271.157 444.059 276.977 440.409L244.202 418.054C238.379 421.699 232.627 424.96 226.99 427.809Z" fill="#FED92D"/>
<path d="M244.201 418.055L276.976 440.41C282.862 436.722 288.819 432.634 294.808 428.174L262.033 405.818C256.044 410.279 250.083 414.365 244.201 418.055Z" fill="#FEDB2D"/>
<path d="M262.03 405.817L294.805 428.172C301.221 423.395 307.672 418.186 314.104 412.579L281.329 390.224C274.896 395.834 268.446 401.04 262.03 405.817Z" fill="#FEDD2D"/>
<path d="M281.328 390.226L314.103 412.582C321.432 406.196 328.733 399.294 335.938 391.916L303.159 369.559C295.958 376.938 288.657 383.84 281.328 390.226Z" fill="#FEE02D"/>
<path d="M303.163 369.56L335.941 391.917C347.778 379.802 359.339 366.405 370.301 351.93C383.642 334.307 395.009 316.497 404.251 299.148L371.475 276.797C362.229 294.144 350.867 311.952 337.52 329.577C326.564 344.05 314.999 357.445 303.163 369.56Z" fill="#FFE543"/>
<path d="M371.47 276.796L404.247 299.148C409.064 290.104 413.307 281.192 416.956 272.489L384.179 250.137C380.532 258.837 376.292 267.754 371.47 276.796Z" fill="#FEE02D"/>
<path d="M384.18 250.136L416.957 272.487C420.069 265.059 422.749 257.79 424.981 250.736L392.205 228.384C389.974 235.435 387.293 242.708 384.18 250.136Z" fill="#FEDD2D"/>
<path d="M392.206 228.381L424.982 250.733C427.043 244.22 428.726 237.888 430.013 231.788L397.238 209.433C395.944 215.539 394.267 221.868 392.206 228.381Z" fill="#FEDB2D"/>
<path d="M397.233 209.434L430.008 231.789C431.278 225.78 432.171 219.988 432.67 214.46L399.894 192.108C399.394 197.636 398.502 203.428 397.233 209.434Z" fill="#FED92D"/>
<path d="M399.899 192.108L432.675 214.46C433.205 208.615 433.303 203.061 432.954 197.853L400.179 175.497C400.527 180.709 400.429 186.263 399.899 192.108Z" fill="#FED72C"/>
<path d="M400.178 175.5L432.953 197.855C432.546 191.762 431.523 186.137 429.877 181.069L397.102 158.713C398.748 163.782 399.767 169.405 400.178 175.5Z" fill="#FED42C"/>
<path d="M397.101 158.718L429.876 181.073C426.831 171.72 421.651 164.254 414.215 159.18L381.439 136.828C388.877 141.896 394.061 149.362 397.101 158.718Z" fill="#FED32C"/>
</g>
</g>
<defs>
<filter id="filter0_df_136_145" x="0.327927" y="0.794846" width="565.632" height="600.098" filterUnits="userSpaceOnUse" color-interpolation-filters="sRGB">
<feFlood flood-opacity="0" result="BackgroundImageFix"/>
<feColorMatrix in="SourceAlpha" type="matrix" values="0 0 0 0 0 0 0 0 0 0 0 0 0 0 0 0 0 0 127 0" result="hardAlpha"/>
<feOffset dy="4"/>
<feGaussianBlur stdDeviation="66.4"/>
<feComposite in2="hardAlpha" operator="out"/>
<feColorMatrix type="matrix" values="0 0 0 0 1 0 0 0 0 0.733333 0 0 0 0 0 0 0 0 1 0"/>
<feBlend mode="normal" in2="BackgroundImageFix" result="effect1_dropShadow_136_145"/>
<feBlend mode="normal" in="SourceGraphic" in2="effect1_dropShadow_136_145" result="shape"/>
<feGaussianBlur stdDeviation="6.3" result="effect2_foregroundBlur_136_145"/>
</filter>
</defs>
</svg>
