<svg width="559" height="572" viewBox="0 0 559 572" fill="none" xmlns="http://www.w3.org/2000/svg">
<g filter="url(#filter0_d_599_363)">
<mask id="mask0_599_363" style="mask-type:luminance" maskUnits="userSpaceOnUse" x="256" y="274" width="135" height="128">
<path d="M371.907 274.821C378.228 280.207 384.55 285.59 390.874 290.976C373.749 342.931 326.693 389.76 275.742 401.877L256.774 385.722C307.723 373.605 354.778 326.773 371.907 274.821Z" fill="white"/>
</mask>
<g mask="url(#mask0_599_363)">
<path d="M275.742 401.877L256.774 385.722C256.855 385.703 256.936 385.683 257.016 385.664L275.984 401.819C275.903 401.838 275.822 401.858 275.742 401.877Z" fill="#FECF10"/>
<path d="M275.984 401.819L257.017 385.664C258.462 385.319 259.904 384.942 261.342 384.542L280.309 400.697C278.871 401.097 277.429 401.471 275.984 401.819Z" fill="#FED110"/>
<path d="M280.309 400.694L261.341 384.539C262.78 384.139 264.212 383.707 265.641 383.252L284.608 399.407C283.179 399.865 281.747 400.294 280.309 400.694Z" fill="#FED211"/>
<path d="M284.608 399.41L265.641 383.255C267.163 382.772 268.679 382.256 270.188 381.711L289.155 397.866C287.646 398.411 286.13 398.927 284.608 399.41Z" fill="#FED411"/>
<path d="M289.156 397.866L270.188 381.711C271.698 381.166 273.201 380.595 274.694 379.995L293.658 396.153C292.168 396.75 290.665 397.324 289.156 397.866Z" fill="#FED611"/>
<path d="M293.661 396.149L274.697 379.991C276.139 379.41 277.581 378.804 279.009 378.172L297.977 394.33C296.545 394.966 295.106 395.572 293.661 396.149Z" fill="#FED811"/>
<path d="M297.977 394.334L279.009 378.176C280.438 377.547 281.86 376.889 283.276 376.208L302.24 392.363C300.828 393.047 299.405 393.702 297.977 394.334Z" fill="#FEDA11"/>
<path d="M302.242 392.363L283.278 376.208C284.649 375.547 286.013 374.863 287.371 374.157L306.338 390.315C304.981 391.022 303.613 391.705 302.242 392.363Z" fill="#FEDC11"/>
<path d="M306.338 390.315L287.371 374.157C288.729 373.451 290.077 372.722 291.422 371.974L310.389 388.128C309.044 388.88 307.696 389.609 306.338 390.315Z" fill="#FEDD12"/>
<path d="M310.391 388.129L291.423 371.974C292.749 371.232 294.068 370.471 295.377 369.687L314.345 385.845C313.032 386.626 311.713 387.39 310.391 388.129Z" fill="#FEDF12"/>
<path d="M314.34 385.842L295.373 369.684C296.682 368.9 297.985 368.097 299.276 367.271L318.243 383.426C316.953 384.255 315.65 385.058 314.34 385.842Z" fill="#FEE112"/>
<path d="M318.247 383.43L299.28 367.275C300.589 366.439 301.889 365.585 303.176 364.707L322.143 380.866C320.853 381.74 319.553 382.598 318.247 383.43Z" fill="#FEE312"/>
<path d="M322.143 380.865L303.176 364.707C304.469 363.83 305.749 362.933 307.023 362.014L325.991 378.172C324.717 379.091 323.436 379.988 322.143 380.865Z" fill="#FEE83F"/>
<path d="M325.99 378.172L307.023 362.014C308.381 361.037 309.726 360.034 311.061 359.011L330.025 375.17C328.696 376.195 327.348 377.195 325.99 378.172Z" fill="#FEEB52"/>
<path d="M330.028 375.172L311.064 359.014C312.419 357.976 313.763 356.915 315.092 355.834L334.056 371.989C332.731 373.073 331.386 374.134 330.028 375.172Z" fill="#FEEC61"/>
<path d="M334.06 371.989L315.096 355.834C316.66 354.561 318.205 353.258 319.733 351.929L338.698 368.084C337.169 369.416 335.624 370.715 334.06 371.989Z" fill="#FEEE6E"/>
<path d="M338.694 368.084L319.73 351.929C321.462 350.416 323.168 348.871 324.848 347.291L343.816 363.449C342.135 365.026 340.429 366.574 338.694 368.084Z" fill="#FEF079"/>
<path d="M343.815 363.45L324.848 347.291C327.312 344.972 329.715 342.583 332.056 340.122L351.02 356.277C348.682 358.738 346.276 361.127 343.815 363.45Z" fill="#FFF082"/>
<path d="M351.02 356.276L332.056 340.122C336.678 335.264 341.051 330.146 345.125 324.812L364.092 340.97C360.015 346.301 355.645 351.423 351.02 356.276Z" fill="#FFF18B"/>
<path d="M364.093 340.97L345.125 324.812C347.183 322.122 349.163 319.377 351.066 316.584L370.034 332.742C368.131 335.535 366.15 338.28 364.093 340.97Z" fill="#FFF082"/>
<path d="M370.033 332.742L351.065 316.584C352.417 314.601 353.723 312.595 354.994 310.563L373.961 326.721C372.69 328.75 371.384 330.759 370.033 332.742Z" fill="#FEF079"/>
<path d="M373.959 326.721L354.992 310.563C355.985 308.973 356.949 307.37 357.888 305.754L376.855 321.909C375.92 323.528 374.952 325.131 373.959 326.721Z" fill="#FEEE6E"/>
<path d="M376.858 321.912L357.891 305.757C358.79 304.206 359.671 302.642 360.519 301.068L379.486 317.226C378.635 318.796 377.758 320.361 376.858 321.912Z" fill="#FEEC61"/>
<path d="M379.486 317.226L360.519 301.068C361.296 299.629 362.054 298.181 362.786 296.727L381.754 312.885C381.021 314.336 380.267 315.784 379.486 317.226Z" fill="#FEEB52"/>
<path d="M381.757 312.882L362.79 296.724C363.512 295.295 364.209 293.857 364.89 292.412L383.854 308.57C383.176 310.015 382.476 311.453 381.757 312.882Z" fill="#FEE83F"/>
<path d="M383.853 308.57L364.889 292.412C365.541 291.022 366.169 289.622 366.786 288.219L385.75 304.374C385.137 305.78 384.508 307.176 383.853 308.57Z" fill="#FEE312"/>
<path d="M385.749 304.377L366.785 288.222C367.395 286.816 367.985 285.406 368.553 283.994L387.52 300.149C386.952 301.561 386.359 302.971 385.749 304.377Z" fill="#FEE112"/>
<path d="M387.521 300.145L368.554 283.99C369.125 282.575 369.673 281.152 370.195 279.727L389.163 295.882C388.637 297.307 388.089 298.729 387.521 300.145Z" fill="#FEDF12"/>
<path d="M389.159 295.882L370.191 279.727C370.72 278.298 371.22 276.863 371.704 275.424L390.671 291.579C390.191 293.018 389.684 294.45 389.159 295.882Z" fill="#FEDD12"/>
<path d="M390.67 291.579L371.703 275.424C372.193 273.95 372.664 272.473 373.106 270.993L392.073 287.148C391.632 288.628 391.161 290.105 390.67 291.579Z" fill="#FEDC11"/>
</g>
<mask id="mask1_599_363" style="mask-type:luminance" maskUnits="userSpaceOnUse" x="371" y="206" width="27" height="85">
<path d="M377.892 248.217C379.731 232.771 378.463 218.777 374.602 206.693C380.924 212.079 387.245 217.465 393.57 222.848C397.43 234.932 398.698 248.93 396.863 264.372C395.805 273.289 393.763 282.204 390.873 290.973C384.549 285.587 378.228 280.204 371.906 274.818C374.796 266.049 376.834 257.134 377.892 248.217Z" fill="white"/>
</mask>
<g mask="url(#mask1_599_363)">
<path d="M390.67 291.58L371.703 275.425C372.193 273.951 372.664 272.474 373.106 270.993L392.073 287.148C391.632 288.628 391.161 290.106 390.67 291.58Z" fill="#FEDC11"/>
<path d="M392.077 287.149L373.109 270.994C373.554 269.51 373.974 268.027 374.37 266.536L393.334 282.695C392.938 284.181 392.519 285.668 392.077 287.149Z" fill="#FEDA11"/>
<path d="M393.332 282.695L374.368 266.536C374.774 264.995 375.155 263.45 375.509 261.905L394.477 278.06C394.122 279.611 393.741 281.153 393.332 282.695Z" fill="#FED811"/>
<path d="M394.48 278.063L375.513 261.908C375.861 260.37 376.19 258.825 376.487 257.28L395.454 273.438C395.154 274.98 394.828 276.521 394.48 278.063Z" fill="#FED611"/>
<path d="M395.45 273.435L376.483 257.276C376.751 255.87 376.999 254.467 377.221 253.058L396.189 269.216C395.966 270.625 395.721 272.032 395.45 273.435Z" fill="#FED411"/>
<path d="M396.189 269.22L377.221 253.061C377.444 251.655 377.644 250.249 377.818 248.84L396.785 264.995C396.611 266.404 396.411 267.813 396.189 269.22Z" fill="#FED211"/>
<path d="M396.786 264.998L377.818 248.843C377.847 248.637 377.873 248.427 377.893 248.22C378.083 246.656 378.238 245.102 378.36 243.567L397.324 259.721C397.205 261.26 397.05 262.811 396.863 264.375C396.834 264.582 396.808 264.788 396.786 264.998Z" fill="#FED110"/>
<path d="M397.324 259.718L378.36 243.563C378.505 241.754 378.605 239.967 378.663 238.2L397.63 254.355C397.572 256.125 397.466 257.912 397.324 259.718Z" fill="#FECF10"/>
<path d="M397.628 254.358L378.661 238.203C378.719 236.404 378.735 234.627 378.709 232.875L397.676 249.033C397.705 250.781 397.689 252.559 397.628 254.358Z" fill="#FECD10"/>
<path d="M397.676 249.03L378.708 232.872C378.679 231.069 378.605 229.292 378.486 227.541L397.453 243.699C397.573 245.45 397.647 247.227 397.676 249.03Z" fill="#FECB10"/>
<path d="M397.452 243.699L378.485 227.54C378.362 225.744 378.195 223.98 377.979 222.238L396.946 238.396C397.159 240.135 397.33 241.902 397.452 243.699Z" fill="#FEC910"/>
<path d="M396.943 238.397L377.976 222.239C377.74 220.355 377.453 218.501 377.108 216.682L396.075 232.837C396.42 234.656 396.707 236.51 396.943 238.397Z" fill="#FEC710"/>
<path d="M396.08 232.84L377.112 216.685C376.751 214.74 376.322 212.837 375.838 210.973L394.806 227.128C395.289 228.989 395.718 230.895 396.08 232.84Z" fill="#FEC60F"/>
<path d="M394.806 227.128L375.839 210.973C375.303 208.922 374.7 206.919 374.029 204.968L392.993 221.126C393.667 223.074 394.27 225.073 394.806 227.128Z" fill="#FEC40F"/>
</g>
<mask id="mask2_599_363" style="mask-type:luminance" maskUnits="userSpaceOnUse" x="186" y="372" width="90" height="33">
<path d="M186.055 372.506C203.126 387.051 227.927 392.579 256.773 385.719L275.741 401.874C246.895 408.734 222.093 403.206 205.022 388.661C199.33 383.817 191.744 377.353 186.055 372.506Z" fill="white"/>
</mask>
<g mask="url(#mask2_599_363)">
<path d="M205.025 388.664L186.058 372.509C191.06 376.769 196.727 380.256 202.965 382.884L221.929 399.043C215.694 396.414 210.028 392.928 205.025 388.664Z" fill="#FEBE0F"/>
<path d="M221.929 399.043L202.965 382.885C205.622 384.007 208.386 384.968 211.244 385.771L230.211 401.926C227.35 401.126 224.586 400.162 221.929 399.043Z" fill="#FEC00F"/>
<path d="M230.211 401.929L211.244 385.774C213.501 386.406 215.82 386.939 218.194 387.368L237.161 403.522C234.787 403.094 232.465 402.565 230.211 401.929Z" fill="#FEC20F"/>
<path d="M237.161 403.519L218.193 387.364C220.245 387.732 222.341 388.025 224.473 388.235L243.44 404.393C241.308 404.18 239.212 403.89 237.161 403.519Z" fill="#FEC40F"/>
<path d="M243.441 404.39L224.474 388.232C226.38 388.422 228.315 388.545 230.282 388.603L249.25 404.758C247.285 404.703 245.347 404.58 243.441 404.39Z" fill="#FEC60F"/>
<path d="M249.249 404.761L230.281 388.606C232.091 388.661 233.922 388.657 235.78 388.603L254.747 404.758C252.89 404.816 251.058 404.816 249.249 404.761Z" fill="#FEC710"/>
<path d="M254.751 404.757L235.784 388.602C237.57 388.544 239.377 388.438 241.208 388.277L260.176 404.432C258.344 404.593 256.535 404.703 254.751 404.757Z" fill="#FEC910"/>
<path d="M260.173 404.432L241.206 388.277C242.954 388.122 244.718 387.922 246.505 387.67L265.469 403.825C263.688 404.077 261.921 404.28 260.173 404.432Z" fill="#FECB10"/>
<path d="M265.472 403.825L246.508 387.67C248.246 387.425 250.001 387.132 251.768 386.796L270.735 402.954C268.965 403.29 267.207 403.58 265.472 403.825Z" fill="#FECD10"/>
<path d="M270.735 402.951L251.768 386.793C253.423 386.477 255.093 386.119 256.774 385.719L275.741 401.874C274.057 402.277 272.39 402.635 270.735 402.951Z" fill="#FECF10"/>
</g>
<mask id="mask3_599_363" style="mask-type:luminance" maskUnits="userSpaceOnUse" x="354" y="175" width="40" height="48">
<path d="M374.602 206.693C370.497 193.853 363.463 183.172 354.103 175.196L373.07 191.354C382.427 199.327 389.464 210.008 393.566 222.848C392.902 222.283 392.018 221.529 391.351 220.961C390.644 220.361 389.703 219.561 388.999 218.962C388.267 218.339 387.293 217.507 386.561 216.885C385.819 216.252 384.823 215.404 384.078 214.772C383.336 214.137 382.34 213.292 381.594 212.656C380.862 212.034 379.888 211.202 379.156 210.579C378.45 209.979 377.511 209.176 376.808 208.576C376.473 208.289 376.021 207.906 375.679 207.619C375.363 207.341 374.838 207.051 374.602 206.693Z" fill="white"/>
</mask>
<g mask="url(#mask3_599_363)">
<path d="M394.805 227.127L375.838 210.973C375.303 208.921 374.7 206.918 374.029 204.967L392.993 221.125C393.667 223.073 394.27 225.073 394.805 227.127Z" fill="#FEC40F"/>
<path d="M392.992 221.122L374.028 204.964C373.241 202.69 372.36 200.487 371.393 198.359L390.36 214.514C391.327 216.645 392.208 218.848 392.992 221.122Z" fill="#FEC20F"/>
<path d="M390.356 214.517L371.389 198.362C370.128 195.591 368.712 192.944 367.151 190.428L386.119 206.583C387.68 209.099 389.095 211.746 390.356 214.517Z" fill="#FEC00F"/>
<path d="M386.122 206.583L367.155 190.428C363.549 184.616 359.166 179.508 354.1 175.196L373.067 191.354C378.13 195.666 382.513 200.771 386.122 206.583Z" fill="#FEBE0F"/>
</g>
<path d="M305.99 174.76C365.546 161.975 400.801 203.812 388.61 263.752C377.199 319.858 327.038 375.963 273.464 392.96C216.949 410.888 172.774 380.51 177.983 320.532C183.588 255.996 242.715 188.341 305.99 174.76Z" fill="#F3A500"/>
<path d="M286.974 238.87L277.108 231.814L290.392 228.656L300.258 235.713L286.974 238.87Z" fill="#CF8E00"/>
<path d="M300.259 235.713L290.203 228.466L292.615 208.17L302.671 215.413L300.259 235.713Z" fill="#CF8E00"/>
<path d="M316.457 278.528C326.613 279.108 333.611 285.191 331.879 299.759C330.089 314.811 320.694 326.554 308.3 333.52L305.452 357.467L285.211 362.279L287.788 340.603L274.5 343.763L271.923 365.44L251.656 370.258L254.233 348.582L243.396 351.159L255.871 246.266L266.708 243.689L269.121 223.393L289.388 218.575L286.972 238.871L300.256 235.713L302.672 215.417L322.91 210.605L320.143 233.875C328.944 235.433 334.25 241.473 332.808 253.61C331.602 263.766 325.171 272.729 316.457 278.528ZM289.436 322.458C298.944 320.197 308.419 316.078 309.893 303.7C311.396 291.051 301.637 291.796 291.713 294.154L270.536 299.191L267.14 327.757L289.436 322.458ZM275.319 258.973L272.394 283.568L292.555 278.776C300.656 276.85 309.522 273.164 310.787 262.544C312.048 251.949 303.998 252.155 295.48 254.181L275.319 258.973Z" fill="#FFD12B"/>
<path d="M302.671 215.414L292.615 208.17L312.856 203.355L322.913 210.602L302.671 215.414Z" fill="#CF8E00"/>
<path d="M255.87 246.265L245.804 239.009L256.638 236.432L266.707 243.689L255.87 246.265Z" fill="#CF8E00"/>
<path d="M243.399 351.159L233.385 343.954L245.857 239.061L255.871 246.266L243.399 351.159Z" fill="#CF8E00"/>
<path d="M266.708 243.689L256.522 236.313L258.935 216.017L269.12 223.393L266.708 243.689Z" fill="#CF8E00"/>
<path d="M269.12 223.393L258.935 216.017L279.276 211.124L289.387 218.574L269.12 223.393Z" fill="#CF8E00"/>
<mask id="mask4_599_363" style="mask-type:luminance" maskUnits="userSpaceOnUse" x="286" y="129" width="110" height="37">
<path d="M376.082 149.352L395.049 165.51C373.512 147.162 342.221 140.196 305.831 148.846L286.864 132.691C323.253 124.038 354.544 131.004 376.082 149.352Z" fill="white"/>
</mask>
<g mask="url(#mask4_599_363)">
<path d="M305.828 148.846L286.86 132.691C288.986 132.184 291.089 131.733 293.178 131.333L312.146 147.488C310.056 147.891 307.953 148.342 305.828 148.846Z" fill="#FECF10"/>
<path d="M312.146 147.491L293.179 131.336C295.414 130.907 297.629 130.543 299.823 130.233L318.79 146.388C316.597 146.694 314.381 147.065 312.146 147.491Z" fill="#FECD10"/>
<path d="M318.787 146.388L299.819 130.233C302.071 129.913 304.302 129.662 306.505 129.468L325.472 145.623C323.27 145.817 321.041 146.072 318.787 146.388Z" fill="#FECB10"/>
<path d="M325.475 145.62L306.508 129.465C308.817 129.262 311.097 129.123 313.352 129.056L332.316 145.211C330.065 145.285 327.784 145.42 325.475 145.62Z" fill="#FEC910"/>
<path d="M332.316 145.214L313.352 129.059C315.696 128.988 318.009 128.985 320.292 129.053L339.259 145.208C336.976 145.14 334.66 145.14 332.316 145.214Z" fill="#FEC710"/>
<path d="M339.261 145.208L320.293 129.053C322.777 129.127 325.218 129.282 327.621 129.52L346.588 145.675C344.186 145.437 341.741 145.282 339.261 145.208Z" fill="#FEC60F"/>
<path d="M346.588 145.675L327.621 129.52C330.314 129.785 332.959 130.152 335.549 130.617L354.516 146.772C351.923 146.307 349.281 145.94 346.588 145.675Z" fill="#FEC40F"/>
<path d="M354.513 146.772L335.545 130.617C338.542 131.156 341.467 131.827 344.315 132.626L363.282 148.785C360.434 147.982 357.509 147.311 354.513 146.772Z" fill="#FEC20F"/>
<path d="M363.281 148.781L344.314 132.623C347.92 133.635 351.403 134.851 354.757 136.264L373.724 152.422C370.37 151.006 366.887 149.794 363.281 148.781Z" fill="#FEC00F"/>
<path d="M373.724 152.423L354.756 136.264C362.623 139.58 369.77 143.979 376.078 149.352L395.045 165.51C388.737 160.134 381.593 155.738 373.724 152.423Z" fill="#FEBE0F"/>
</g>
<mask id="mask5_599_363" style="mask-type:luminance" maskUnits="userSpaceOnUse" x="133" y="132" width="173" height="283">
<path d="M183.033 414.485L164.066 398.327C141.144 378.802 129.266 346.386 134.046 306.2C143.318 228.228 211.734 150.556 286.861 132.691L305.829 148.846C230.701 166.711 162.285 244.383 153.013 322.355C148.237 362.544 160.112 394.957 183.033 414.485Z" fill="white"/>
</mask>
<g mask="url(#mask5_599_363)">
<path d="M183.033 414.486L164.066 398.327C157.677 392.883 152.146 386.443 147.595 379.108L166.562 395.263C171.113 402.597 176.644 409.041 183.033 414.486Z" fill="#FEBE0F"/>
<path d="M166.562 395.263L147.594 379.108C145.627 375.935 143.84 372.597 142.247 369.097L161.214 385.256C162.808 388.752 164.594 392.093 166.562 395.263Z" fill="#FEC00F"/>
<path d="M161.218 385.256L142.251 369.098C141.029 366.411 139.919 363.631 138.926 360.764L157.893 376.922C158.883 379.789 159.993 382.569 161.218 385.256Z" fill="#FEC20F"/>
<path d="M157.893 376.921L138.926 360.763C138.078 358.302 137.313 355.777 136.639 353.187L155.606 369.346C156.281 371.935 157.042 374.461 157.893 376.921Z" fill="#FEC40F"/>
<path d="M155.606 369.349L136.639 353.191C136.03 350.84 135.491 348.437 135.03 345.986L153.997 362.144C154.458 364.595 154.997 366.998 155.606 369.349Z" fill="#FEC60F"/>
<path d="M154.001 362.141L135.033 345.982C134.601 343.689 134.237 341.351 133.943 338.971L152.911 355.129C153.204 357.509 153.569 359.847 154.001 362.141Z" fill="#FEC710"/>
<path d="M152.906 355.132L133.939 338.974C133.665 336.781 133.452 334.549 133.297 332.285L152.265 348.44C152.42 350.704 152.636 352.936 152.906 355.132Z" fill="#FEC910"/>
<path d="M152.268 348.44L133.301 332.285C133.15 330.076 133.056 327.834 133.021 325.557L151.988 341.716C152.02 343.989 152.117 346.231 152.268 348.44Z" fill="#FECB10"/>
<path d="M151.984 341.716L133.017 325.558C132.982 323.345 133.001 321.107 133.078 318.833L152.046 334.991C151.968 337.262 151.952 339.503 151.984 341.716Z" fill="#FECD10"/>
<path d="M152.046 334.991L133.079 318.833C133.153 316.607 133.282 314.35 133.462 312.069L152.43 328.228C152.246 330.511 152.12 332.765 152.046 334.991Z" fill="#FECF10"/>
<path d="M152.43 328.228L133.463 312.069C133.618 310.131 133.811 308.173 134.047 306.2C134.079 305.938 134.111 305.674 134.143 305.413L153.111 321.568C153.078 321.832 153.046 322.093 153.014 322.355C152.778 324.332 152.585 326.289 152.43 328.228Z" fill="#FED110"/>
<path d="M153.11 321.571L134.143 305.416C134.362 303.639 134.614 301.859 134.895 300.085L153.862 316.24C153.581 318.014 153.33 319.794 153.11 321.571Z" fill="#FED211"/>
<path d="M153.862 316.237L134.895 300.082C135.175 298.305 135.488 296.528 135.827 294.754L154.794 310.912C154.455 312.686 154.142 314.463 153.862 316.237Z" fill="#FED411"/>
<path d="M154.794 310.912L135.827 294.754C136.201 292.802 136.61 290.854 137.055 288.91L156.023 305.068C155.581 307.013 155.171 308.964 154.794 310.912Z" fill="#FED611"/>
<path d="M156.025 305.071L137.058 288.913C137.503 286.962 137.987 285.01 138.503 283.066L157.467 299.22C156.951 301.165 156.471 303.117 156.025 305.071Z" fill="#FED811"/>
<path d="M157.468 299.221L138.504 283.066C139.001 281.186 139.529 279.312 140.091 277.441L159.058 293.596C158.497 295.467 157.965 297.341 157.468 299.221Z" fill="#FEDA11"/>
<path d="M159.057 293.593L140.09 277.438C140.651 275.567 141.241 273.706 141.864 271.848L160.831 288.003C160.209 289.861 159.618 291.725 159.057 293.593Z" fill="#FEDC11"/>
<path d="M160.827 288.003L141.86 271.848C142.466 270.032 143.102 268.223 143.766 266.417L162.733 282.575C162.072 284.378 161.433 286.187 160.827 288.003Z" fill="#FEDD12"/>
<path d="M162.737 282.572L143.77 266.414C144.434 264.614 145.121 262.818 145.841 261.031L164.808 277.189C164.089 278.979 163.398 280.772 162.737 282.572Z" fill="#FEDF12"/>
<path d="M164.808 277.193L145.841 261.035C146.56 259.241 147.308 257.455 148.082 255.674L167.05 271.833C166.276 273.61 165.527 275.396 164.808 277.193Z" fill="#FEE112"/>
<path d="M167.049 271.832L148.082 255.674C148.856 253.893 149.659 252.12 150.488 250.355L169.452 266.51C168.626 268.278 167.823 270.052 167.049 271.832Z" fill="#FEE312"/>
<path d="M169.455 266.511L150.491 250.356C151.346 248.537 152.226 246.725 153.136 244.922L172.1 261.077C171.19 262.883 170.31 264.695 169.455 266.511Z" fill="#FEE83F"/>
<path d="M172.099 261.08L153.135 244.925C154.058 243.099 155.006 241.284 155.983 239.478L174.947 255.636C173.97 257.439 173.022 259.254 172.099 261.08Z" fill="#FEEB52"/>
<path d="M174.948 255.632L155.984 239.474C157.055 237.494 158.161 235.523 159.296 233.569L178.263 249.727C177.125 251.682 176.019 253.649 174.948 255.632Z" fill="#FEEC61"/>
<path d="M178.26 249.727L159.292 233.569C160.476 231.53 161.698 229.508 162.95 227.502L181.917 243.66C180.663 245.666 179.443 247.685 178.26 249.727Z" fill="#FEEE6E"/>
<path d="M181.917 243.66L162.949 227.502C164.549 224.941 166.2 222.41 167.903 219.907L186.87 236.065C185.164 238.564 183.513 241.099 181.917 243.66Z" fill="#FEF079"/>
<path d="M186.871 236.065L167.904 219.907C170.303 216.385 172.803 212.921 175.399 209.528L194.366 225.683C191.77 229.076 189.267 232.54 186.871 236.065Z" fill="#FFF082"/>
<path d="M194.364 225.683L175.396 209.528C180.537 202.8 186.052 196.343 191.884 190.219L210.851 206.374C205.02 212.498 199.505 218.955 194.364 225.683Z" fill="#FFF18B"/>
<path d="M210.851 206.374L191.883 190.219C194.834 187.116 197.866 184.101 200.975 181.175L219.942 197.334C216.837 200.252 213.802 203.271 210.851 206.374Z" fill="#FFF082"/>
<path d="M219.941 197.331L200.974 181.172C203.093 179.179 205.247 177.228 207.431 175.322L226.398 191.477C224.215 193.386 222.06 195.337 219.941 197.331Z" fill="#FEF079"/>
<path d="M226.398 191.48L207.431 175.325C209.357 173.645 211.308 172.003 213.278 170.397L232.246 186.555C230.275 188.158 228.324 189.803 226.398 191.48Z" fill="#FEEE6E"/>
<path d="M232.246 186.552L213.278 170.394C214.959 169.03 216.652 167.691 218.361 166.382L237.329 182.537C235.619 183.849 233.926 185.188 232.246 186.552Z" fill="#FEEC61"/>
<path d="M237.332 182.54L218.365 166.385C220.048 165.095 221.748 163.834 223.461 162.598L242.428 178.753C240.712 179.989 239.016 181.25 237.332 182.54Z" fill="#FEEB52"/>
<path d="M242.428 178.753L223.461 162.599C225.067 161.441 226.683 160.309 228.315 159.202L247.282 175.361C245.65 176.467 244.031 177.599 242.428 178.753Z" fill="#FEE83F"/>
<path d="M247.282 175.361L228.314 159.203C229.943 158.1 231.582 157.019 233.233 155.968L252.2 172.123C250.549 173.177 248.907 174.254 247.282 175.361Z" fill="#FEE312"/>
<path d="M252.2 172.122L233.232 155.967C234.861 154.926 236.506 153.913 238.154 152.926L257.121 169.081C255.47 170.068 253.828 171.084 252.2 172.122Z" fill="#FEE112"/>
<path d="M257.123 169.078L238.155 152.923C239.81 151.933 241.471 150.972 243.145 150.036L262.112 166.191C260.438 167.13 258.777 168.091 257.123 169.078Z" fill="#FEDF12"/>
<path d="M262.111 166.194L243.144 150.039C244.837 149.091 246.54 148.172 248.253 147.282L267.22 163.44C265.507 164.327 263.805 165.246 262.111 166.194Z" fill="#FEDD12"/>
<path d="M267.22 163.437L248.253 147.279C249.966 146.389 251.688 145.527 253.42 144.695L272.387 160.85C270.655 161.686 268.933 162.547 267.22 163.437Z" fill="#FEDC11"/>
<path d="M272.384 160.85L253.417 144.695C255.203 143.834 256.996 143.009 258.799 142.212L277.767 158.37C275.967 159.163 274.171 159.992 272.384 160.85Z" fill="#FEDA11"/>
<path d="M277.77 158.37L258.802 142.212C260.608 141.415 262.424 140.651 264.246 139.919L283.214 156.074C281.391 156.806 279.576 157.57 277.77 158.37Z" fill="#FED811"/>
<path d="M283.214 156.074L264.247 139.919C266.133 139.161 268.03 138.439 269.933 137.755L288.9 153.913C286.997 154.597 285.101 155.316 283.214 156.074Z" fill="#FED611"/>
<path d="M288.897 153.91L269.93 137.752C271.836 137.065 273.752 136.417 275.671 135.804L294.638 151.962C292.719 152.575 290.804 153.223 288.897 153.91Z" fill="#FED411"/>
<path d="M294.637 151.962L275.67 135.803C277.473 135.229 279.285 134.688 281.098 134.181L300.062 150.339C298.249 150.846 296.44 151.388 294.637 151.962Z" fill="#FED211"/>
<path d="M300.066 150.34L281.102 134.181C282.917 133.675 284.736 133.201 286.559 132.766L305.526 148.924C303.7 149.359 301.881 149.833 300.066 150.34Z" fill="#FED110"/>
<path d="M305.522 148.921L286.555 132.762C286.658 132.74 286.758 132.714 286.862 132.691L305.829 148.846C305.726 148.872 305.622 148.898 305.522 148.921Z" fill="#FECF10"/>
</g>
<path d="M305.828 148.846C380.952 130.985 434.342 179.691 425.069 257.663C415.803 335.609 347.384 413.281 272.26 431.143C197.133 449.007 143.743 400.3 153.012 322.354C162.285 244.382 230.704 166.713 305.828 148.846ZM275.74 401.877C335.287 387.719 389.518 326.134 396.859 264.375C404.206 202.59 361.891 163.988 302.345 178.146C242.795 192.308 188.573 253.867 181.223 315.649C173.879 377.405 216.19 416.036 275.74 401.877Z" fill="#FEC00F"/>
</g>
<defs>
<filter id="filter0_d_599_363" x="0.199997" y="0.203781" width="558.716" height="571.43" filterUnits="userSpaceOnUse" color-interpolation-filters="sRGB">
<feFlood flood-opacity="0" result="BackgroundImageFix"/>
<feColorMatrix in="SourceAlpha" type="matrix" values="0 0 0 0 0 0 0 0 0 0 0 0 0 0 0 0 0 0 127 0" result="hardAlpha"/>
<feOffset dy="4"/>
<feGaussianBlur stdDeviation="66.4"/>
<feComposite in2="hardAlpha" operator="out"/>
<feColorMatrix type="matrix" values="0 0 0 0 1 0 0 0 0 0.733333 0 0 0 0 0 0 0 0 1 0"/>
<feBlend mode="normal" in2="BackgroundImageFix" result="effect1_dropShadow_599_363"/>
<feBlend mode="normal" in="SourceGraphic" in2="effect1_dropShadow_599_363" result="shape"/>
</filter>
</defs>
</svg>
