<svg width="355" height="170" viewBox="0 0 355 170" fill="none" xmlns="http://www.w3.org/2000/svg">
<g filter="url(#filter0_d_75_168)">
<path d="M303.971 103.065L307.35 106.444L310.73 103.065L307.35 99.6854L303.971 103.065ZM60.5588 103.065L60.5588 98.2855L60.5588 103.065ZM55.7794 93.5061C55.7794 90.8665 53.6396 88.7267 51 88.7267C48.3604 88.7267 46.2206 90.8665 46.2206 93.5061L55.7794 93.5061ZM288.233 125.562L307.35 106.444L300.591 99.6854L281.473 118.803L288.233 125.562ZM307.35 99.6854L288.233 80.5677L281.473 87.3268L300.591 106.444L307.35 99.6854ZM303.971 98.2855L60.5588 98.2855L60.5588 107.844L303.971 107.844L303.971 98.2855ZM60.5588 98.2855C57.9192 98.2855 55.7794 96.1457 55.7794 93.5061L46.2206 93.5061C46.2206 101.425 52.64 107.844 60.5588 107.844L60.5588 98.2855Z" fill="#FFDD00"/>
<path d="M51 66.8296L47.6204 63.45L44.2409 66.8296L47.6204 70.2091L51 66.8296ZM294.412 66.8296L294.412 71.6091L294.412 66.8296ZM299.191 76.3885C299.191 79.0281 301.331 81.1679 303.971 81.1679C306.61 81.1679 308.75 79.0281 308.75 76.3885L299.191 76.3885ZM66.7381 44.3324L47.6204 63.45L54.3796 70.2091L73.4972 51.0915L66.7381 44.3324ZM47.6204 70.2091L66.7381 89.3268L73.4972 82.5677L54.3796 63.45L47.6204 70.2091ZM51 71.609L294.412 71.6091L294.412 62.0502L51 62.0502L51 71.609ZM294.412 71.6091C297.051 71.6091 299.191 73.7489 299.191 76.3885L308.75 76.3885C308.75 68.4697 302.331 62.0502 294.412 62.0502L294.412 71.6091Z" fill="#FFDD00"/>
</g>
<defs>
<filter id="filter0_d_75_168" x="0.040966" y="0.132359" width="354.889" height="169.63" filterUnits="userSpaceOnUse" color-interpolation-filters="sRGB">
<feFlood flood-opacity="0" result="BackgroundImageFix"/>
<feColorMatrix in="SourceAlpha" type="matrix" values="0 0 0 0 0 0 0 0 0 0 0 0 0 0 0 0 0 0 127 0" result="hardAlpha"/>
<feOffset/>
<feGaussianBlur stdDeviation="22.1"/>
<feComposite in2="hardAlpha" operator="out"/>
<feColorMatrix type="matrix" values="0 0 0 0 1 0 0 0 0 0.817 0 0 0 0 0.39 0 0 0 1 0"/>
<feBlend mode="normal" in2="BackgroundImageFix" result="effect1_dropShadow_75_168"/>
<feBlend mode="normal" in="SourceGraphic" in2="effect1_dropShadow_75_168" result="shape"/>
</filter>
</defs>
</svg>
