<svg width="204" height="261" viewBox="0 0 204 261" fill="none" xmlns="http://www.w3.org/2000/svg">
<g filter="url(#filter0_f_75_183)">
<path d="M53.6983 196.835C51.5061 205.886 52.6486 214.215 57.1256 221.823C61.6493 229.239 68.4365 234.043 77.4873 236.235C86.538 238.427 94.7711 237.261 102.187 232.738C109.602 228.214 114.406 221.427 116.598 212.376C118.837 203.133 117.622 194.684 112.952 187.029C108.283 179.374 101.422 174.451 92.3716 172.258C83.5135 170.113 75.3533 171.398 67.8911 176.114C60.6681 180.685 55.9372 187.592 53.6983 196.835ZM179.483 108.04C172.627 136.348 152.105 152.477 117.918 156.428L86.4436 160.12L81.4981 114.887L108.438 112.238C120.919 110.368 128.233 105.004 130.378 96.1461C131.638 90.9468 130.931 86.2905 128.257 82.1772C125.777 78.1107 121.744 75.401 116.159 74.0484C104.99 71.3431 95.5649 77.0109 87.8828 91.0518L46.232 63.5328C55.8685 47.3151 67.8224 35.8379 82.0937 29.1013C96.3651 22.3647 111.589 20.9554 127.764 24.8734C147.406 29.631 162.066 39.8075 171.744 55.4029C181.614 71.0449 184.194 88.5906 179.483 108.04Z" fill="url(#paint0_linear_75_183)"/>
</g>
<defs>
<filter id="filter0_f_75_183" x="0.501395" y="0.412162" width="203.093" height="260.004" filterUnits="userSpaceOnUse" color-interpolation-filters="sRGB">
<feFlood flood-opacity="0" result="BackgroundImageFix"/>
<feBlend mode="normal" in="SourceGraphic" in2="BackgroundImageFix" result="shape"/>
<feGaussianBlur stdDeviation="3.97489" result="effect1_foregroundBlur_75_183"/>
</filter>
<linearGradient id="paint0_linear_75_183" x1="126.66" y1="28.0148" x2="77.6958" y2="230.169" gradientUnits="userSpaceOnUse">
<stop stop-color="#FFBF00"/>
<stop offset="1" stop-color="#FFF783"/>
</linearGradient>
</defs>
</svg>
